<?xml version="1.0" standalone="no"?>
<!DOCTYPE svg PUBLIC "-//W3C//DTD SVG 1.1//EN"
	"http://www.w3.org/Graphics/SVG/1.1/DTD/svg11.dtd">
<svg xmlns="http://www.w3.org/2000/svg" version="1.1"
	xmlns:xlink="http://www.w3.org/1999/xlink"
	color="black"
	width="907.20px" height="1056.00px">
<style type="text/css">
.fill {fill: currentColor}
.stroke {stroke: currentColor; fill: none}
text{white-space: pre}
</style>
<title>./K516f-8-8-8-8-8-8-8-8-8-8-8-8-8-8-8-8.abc page 1</title>
<!-- Creator: abcm2ps-8.13.8 -->
<!-- CreationDate: Aug 14, 2017 10:23 -->
<!-- CommandLine: -v -q -O= ./K516f-8-8-8-8-8-8-8-8-8-8-8-8-8-8-8-8.abc -->
<rect width="100%" height="100%" fill="white"/>
<g stroke-width="0.70" transform="scale(1.173)">
<!-- title: 8-8-8-8-8-8-8-8-8-8-8-8-8-8-8-8 -->
</g>
<g stroke-width="0.70" transform="scale(1.173)" font-family="serif" font-size="20.00">
<text x="386.57" y="54.23" text-anchor="middle">8-8-8-8-8-8-8-8-8-8-8-8-8-8-8-8</text>
</g>
<g stroke-width="0.70" transform="scale(1.173)" font-family="serif" font-size="20.00">
<!-- subtitle: $1K.516f::152:60:171:53:99:133:21:127:16:155:57:175:43:168:89:172::$0 -->
</g>
<g stroke-width="0.70" transform="scale(1.173)" font-family="Courier" font-size="12.00" font-weight="bold">
<text x="386.57" y="74.03" text-anchor="middle">K.516f::152:60:171:53:99:133:21:127:16:155:57:175:43:168:89:172::</text>
</g>
<g stroke-width="0.70" transform="scale(1.173)" font-family="Courier" font-size="12.00" font-weight="bold">
<!-- subtitle: $1Perm. No.: 227849900149945$0 -->
<text x="386.57" y="93.03" text-anchor="middle">Perm. No.: 227849900149945</text>
</g>
<g stroke-width="0.70" transform="scale(0.821)" font-family="Courier" font-size="12.00" font-weight="bold">
<defs>
<ellipse id="hd" rx="4.1" ry="2.9"
	transform="rotate(-20)" class="fill"/>
</defs>
<use x="123.39" y="167.32" xlink:href="#hd"/>
<path d="M126.89 167.32v-21.00" class="stroke"/>
<path class="fill"
	d="M126.89 146.32c0.6 5.6 9.6 9 5.6 18.4
	1.6 -6 -1.3 -11.6 -5.6 -12.8
"/>
</g>
<g stroke-width="0.70" transform="scale(1.173)" font-family="serif" font-size="15.00" font-weight="bold">
<text x="95.47" y="119.23">= 111</text>
<path class="stroke" stroke-width="1"
	d="M25.77 215.23v-82.00"/>
<path class="fill"
	d="M20.77 130.23
	c10.5 1 12 -4.5 12 -3.5c0 1 -3.5 5.5 -8.5 5.5
	v84.00
	c5 0 8.5 4.5 8.5 5.5c0 1 -1.5 -4.5 -12 -3.5"/>
<defs>
<g id="rdots" class="fill">
	<circle cx="0" cy="-9" r="1.2"/>
	<circle cx="0" cy="-15" r="1.2"/>
</g>
</defs>
<use x="84.77" y="157.23" xlink:href="#rdots"/>
<path class="stroke" stroke-width="1"
	d="M80.77 157.23v-24.00"/>
<path class="stroke" stroke-width="3"
	d="M76.27 157.23v-24.00"/>
<use x="84.77" y="215.23" xlink:href="#rdots"/>
<path class="stroke" stroke-width="1"
	d="M80.77 215.23v-58.00"/>
<path class="stroke" stroke-width="3"
	d="M76.27 215.23v-58.00"/>
<path class="stroke" stroke-width="1"
	d="M168.17 157.23v-24.00"/>
<path class="stroke" stroke-width="1"
	d="M168.17 215.23v-58.00"/>
<path class="stroke" stroke-width="1"
	d="M250.47 157.23v-24.00"/>
<path class="stroke" stroke-width="1"
	d="M250.47 215.23v-58.00"/>
<path class="stroke" stroke-width="1"
	d="M341.27 157.23v-24.00"/>
<path class="stroke" stroke-width="1"
	d="M341.27 215.23v-58.00"/>
<path class="stroke" stroke-width="1"
	d="M413.07 157.23v-24.00"/>
<path class="stroke" stroke-width="1"
	d="M413.07 215.23v-58.00"/>
<path class="stroke" stroke-width="1"
	d="M482.27 157.23v-24.00"/>
<path class="stroke" stroke-width="1"
	d="M482.27 215.23v-58.00"/>
<path class="stroke" stroke-width="1"
	d="M564.67 157.23v-24.00"/>
<path class="stroke" stroke-width="1"
	d="M564.67 215.23v-58.00"/>
<path class="stroke" stroke-width="1"
	d="M660.27 157.23v-24.00"/>
<path class="stroke" stroke-width="1"
	d="M660.27 215.23v-58.00"/>
<path class="stroke" stroke-width="3"
	d="M745.87 157.23v-24.00"/>
<path class="stroke" stroke-width="1"
	d="M741.37 157.23v-24.00"/>
<use x="737.37" y="157.23" xlink:href="#rdots"/>
<path class="stroke" stroke-width="3"
	d="M745.87 215.23v-58.00"/>
<path class="stroke" stroke-width="1"
	d="M741.37 215.23v-58.00"/>
<use x="737.37" y="215.23" xlink:href="#rdots"/>
<path d="m25.77 157.23
	h721.60
	M25.77 151.23
	h721.60
	M25.77 145.23
	h721.60
	M25.77 139.23
	h721.60
	M25.77 133.23
	h721.60
	" class="stroke"/>
<path d="m25.77 215.23
	h721.60
	M25.77 209.23
	h721.60
	M25.77 203.23
	h721.60
	M25.77 197.23
	h721.60
	M25.77 191.23
	h721.60
	" class="stroke"/>
</g>
<g stroke-width="0.70" transform="scale(1.173)" font-family="serif" font-size="13.00">
<text x="664.27" y="118.63">1</text>
<path class="stroke"
	d="M660.27 107.23m0 20v-20h79.10v20"/>
<defs>
<path id="utclef" class="fill" d="m-50 -90
	c-72 -41 -72 -158 52 -188
	150 -10 220 188 90 256
	-114 52 -275 0 -293 -136
	-15 -181 93 -229 220 -334
	88 -87 79 -133 62 -210
	-51 33 -94 105 -89 186
	17 267 36 374 49 574
	6 96 -19 134 -77 135
	-80 1 -126 -93 -61 -133
	85 -41 133 101 31 105
	23 17 92 37 90 -92
	-10 -223 -39 -342 -50 -617
	0 -90 0 -162 96 -232
	56 72 63 230 22 289
	-74 106 -257 168 -255 316
	9 153 148 185 252 133
	86 -65 29 -192 -80 -176
	-71 12 -105 67 -59 124"/>
<use id="tclef" transform="translate(0,6) scale(0.045)"
	xlink:href="#utclef"/>
</defs>
<use x="37.77" y="151.23" xlink:href="#tclef"/>
<g font-family="serif" font-size="16" font-weight="bold" font-style="normal"
	transform="translate(56.27,156.73) scale(1.2,1)">
	<text text-anchor="middle">8</text>
	<text y="-12" text-anchor="middle">3</text>
</g>
<path class="fill"
	d="M94.47 155.83l58.00 8.60v-3.20l-58.00 -8.60"/>
<path class="fill"
	d="M112.67 153.53l39.50 5.90v-3.20l-39.50 -5.90"/>
<use x="98.27" y="130.23" xlink:href="#hd"/>
<path d="M94.77 130.23v24.70" class="stroke"/>
<use x="116.17" y="133.23" xlink:href="#hd"/>
<path d="M112.67 133.23v24.30" class="stroke"/>
<use x="129.27" y="136.23" xlink:href="#hd"/>
<path d="M125.77 136.23v23.30" class="stroke"/>
<use x="142.47" y="139.23" xlink:href="#hd"/>
<path d="M138.97 139.23v22.20" class="stroke"/>
<use x="155.67" y="142.23" xlink:href="#hd"/>
<path d="M152.17 142.23v21.20" class="stroke"/>
<path class="fill"
	d="M176.77 155.83l58.00 8.60v-3.20l-58.00 -8.60"/>
<path class="fill"
	d="M194.97 153.53l39.50 5.90v-3.20l-39.50 -5.90"/>
<use x="180.67" y="130.23" xlink:href="#hd"/>
<path d="M177.17 130.23v24.70" class="stroke"/>
<use x="198.47" y="133.23" xlink:href="#hd"/>
<path d="M194.97 133.23v24.30" class="stroke"/>
<use x="211.67" y="136.23" xlink:href="#hd"/>
<path d="M208.17 136.23v23.30" class="stroke"/>
<use x="224.87" y="139.23" xlink:href="#hd"/>
<path d="M221.37 139.23v22.20" class="stroke"/>
<use x="237.97" y="142.23" xlink:href="#hd"/>
<path d="M234.47 142.23v21.20" class="stroke"/>
<path class="fill"
	d="M259.17 165.23l66.50 0.00v-3.20l-66.50 -0.00"/>
<path class="fill"
	d="M259.47 160.23l65.80 0.00v-3.20l-65.80 -0.00"/>
<use x="262.97" y="145.23" xlink:href="#hd"/>
<path d="M259.47 145.23v18.90" class="stroke"/>
<use x="276.17" y="142.23" xlink:href="#hd"/>
<path d="M272.67 142.23v21.90" class="stroke"/>
<use x="289.37" y="139.23" xlink:href="#hd"/>
<path d="M285.87 139.23v24.90" class="stroke"/>
<use x="302.47" y="136.23" xlink:href="#hd"/>
<path d="M298.97 136.23v27.90" class="stroke"/>
<use x="315.67" y="133.23" xlink:href="#hd"/>
<path d="M312.17 133.23v30.90" class="stroke"/>
<use x="328.77" y="139.23" xlink:href="#hd"/>
<path d="M325.27 139.23v24.90" class="stroke"/>
<path class="fill"
	d="M349.97 159.23l44.90 0.00v-3.20l-44.90 -0.00"/>
<path class="fill"
	d="M368.17 154.23l13.20 0.00v-3.20l-13.20 -0.00"/>
<use x="353.77" y="136.23" xlink:href="#hd"/>
<path d="M350.27 136.23v22.00" class="stroke"/>
<use x="353.77" y="142.23" xlink:href="#hd"/>
<use x="371.67" y="136.23" xlink:href="#hd"/>
<path d="M368.17 136.23v22.00" class="stroke"/>
<use x="371.67" y="142.23" xlink:href="#hd"/>
<use x="384.87" y="133.23" xlink:href="#hd"/>
<path d="M381.37 133.23v25.00" class="stroke"/>
<use x="384.87" y="139.23" xlink:href="#hd"/>
<use x="397.97" y="130.23" xlink:href="#hd"/>
<path d="M394.47 130.23v28.00" class="stroke"/>
<use x="397.97" y="136.23" xlink:href="#hd"/>
<path class="fill"
	d="M427.67 155.43l36.40 3.10v-3.20l-36.40 -3.10"/>
<use x="431.57" y="133.23" xlink:href="#hd"/>
<defs>
<path id="usharp" class="fill" d="
	m136 -702
	v890
	h32
	v-890
	m128 840
	h32
	v-888
	h-32
	m-232 286
	v116
	l338 -96
	v-116
	m-338 442
	v116
	l338 -98
	v-114"/>
<use id="sh0" transform="translate(-4,5) scale(0.018)"
	xlink:href="#usharp"/>
</defs>
<use x="422.57" y="133.23" xlink:href="#sh0"/>
<path d="M428.07 133.23v21.20" class="stroke"/>
<defs>
<path id="hl" class="stroke" d="m-6 0h12"/>
</defs>
<use x="449.37" y="127.23" xlink:href="#hl"/>
<use x="449.37" y="127.23" xlink:href="#hd"/>
<path d="M445.87 127.23v28.70" class="stroke"/>
<use x="467.27" y="139.23" xlink:href="#hd"/>
<path d="M463.77 139.23v18.20" class="stroke"/>
<path class="fill"
	d="M490.97 167.43l58.00 0.00v-3.20l-58.00 -0.00"/>
<path class="fill"
	d="M509.17 162.43l39.50 0.00v-3.20l-39.50 -0.00"/>
<use x="494.77" y="139.23" xlink:href="#hd"/>
<path d="M491.27 139.23v27.20" class="stroke"/>
<use x="512.67" y="130.23" xlink:href="#hd"/>
<path d="M509.17 130.23v36.20" class="stroke"/>
<use x="525.77" y="139.23" xlink:href="#hd"/>
<path d="M522.27 139.23v27.20" class="stroke"/>
<use x="538.97" y="145.23" xlink:href="#hd"/>
<path d="M535.47 145.23v21.20" class="stroke"/>
<use x="552.17" y="139.23" xlink:href="#hd"/>
<path d="M548.67 139.23v27.20" class="stroke"/>
<path class="fill"
	d="M573.27 170.43l71.30 0.00v-3.20l-71.30 -0.00"/>
<path class="fill"
	d="M573.67 165.43l70.70 0.00v-3.20l-70.70 -0.00"/>
<use x="577.17" y="142.23" xlink:href="#hd"/>
<path d="M573.67 142.23v27.20" class="stroke"/>
<use x="590.27" y="136.23" xlink:href="#hd"/>
<path d="M586.77 136.23v33.20" class="stroke"/>
<use x="603.47" y="130.23" xlink:href="#hd"/>
<path d="M599.97 130.23v39.20" class="stroke"/>
<use x="616.67" y="139.23" xlink:href="#hd"/>
<path d="M613.17 139.23v30.20" class="stroke"/>
<use x="629.77" y="148.23" xlink:href="#hd"/>
<path d="M626.27 148.23v21.20" class="stroke"/>
<use x="647.77" y="133.23" xlink:href="#hd"/>
<use x="638.77" y="133.23" xlink:href="#sh0"/>
<path d="M644.27 133.23v36.20" class="stroke"/>
<use x="672.77" y="130.23" xlink:href="#hd"/>
<path d="M669.27 130.23v40.00" class="stroke"/>
<use x="672.77" y="151.23" xlink:href="#hd"/>
<use x="672.77" y="145.23" xlink:href="#hd"/>
<use x="672.77" y="139.23" xlink:href="#hd"/>
<defs>
<path id="r8e" class="fill" d="m 0 0
	c-1.5 1.5 -2.4 2 -3.6 2
	2.4 -2.8 -2.8 -4 -2.8 -1.2
	c0 2.7 4.3 2.4 5.9 0.6"/>
<g id="r8">
	<path d="m3.3 -4l-3.4 9.6" class="stroke"/>
	<use x="3.4" y="-4" xlink:href="#r8e"/>
</g>
</defs>
<use x="721.87" y="145.23" xlink:href="#r8"/>
<defs>
<path id="ubclef" class="fill" d="m-200 -87
	c124 -35 222 -78 254 -236
	43 -228 -167 -246 -192 -103
	59 -80 157 22 92 78
	-62 47 -115 -22 -106 -88
	21 -141 270 -136 274 52
	-1 175 -106 264 -322 297
	m357 -250
	c0 -36 51 -34 51 0
	0 37 -51 36 -51 0
	m-2 -129
	c0 -36 51 -34 51 0
	0 38 -51 37 -51 0"/>
<use id="bclef" transform="translate(0,18) scale(0.045)"
	xlink:href="#ubclef"/>
</defs>
<use x="37.77" y="197.23" xlink:href="#bclef"/>
<g font-family="serif" font-size="16" font-weight="bold" font-style="normal"
	transform="translate(56.27,214.73) scale(1.2,1)">
	<text text-anchor="middle">8</text>
	<text y="-12" text-anchor="middle">3</text>
</g>
<use x="98.27" y="200.23" xlink:href="#hd"/>
<path d="M94.77 200.23v25.00" class="stroke"/>
<use x="98.27" y="206.23" xlink:href="#hd"/>
<use x="142.47" y="203.23" xlink:href="#r8"/>
<use x="180.67" y="200.23" xlink:href="#hd"/>
<path d="M177.17 200.23v25.00" class="stroke"/>
<use x="180.67" y="206.23" xlink:href="#hd"/>
<use x="224.87" y="203.23" xlink:href="#r8"/>
<use x="262.97" y="215.23" xlink:href="#hd"/>
<path d="M266.47 215.23v-40.00" class="stroke"/>
<use x="262.97" y="194.23" xlink:href="#hd"/>
<use x="315.67" y="194.23" xlink:href="#hd"/>
<path d="M312.17 194.23v34.00" class="stroke"/>
<path class="fill"
	d="M312.17 228.23c0.6 -5.6 9.6 -9 5.6 -18.4
	1.6 6 -1.3 11.6 -5.6 12.8
"/>
<use x="315.67" y="209.23" xlink:href="#hd"/>
<use x="353.77" y="206.23" xlink:href="#hd"/>
<path d="M357.27 206.23v-21.00" class="stroke"/>
<use x="397.97" y="203.23" xlink:href="#r8"/>
<use x="431.57" y="191.23" xlink:href="#hd"/>
<path d="M428.07 191.23v34.00" class="stroke"/>
<use x="431.57" y="206.23" xlink:href="#hd"/>
<use x="467.27" y="191.23" xlink:href="#hd"/>
<path d="M463.77 191.23v34.00" class="stroke"/>
<path class="fill"
	d="M463.77 225.23c0.6 -5.6 9.6 -9 5.6 -18.4
	1.6 6 -1.3 11.6 -5.6 12.8
"/>
<use x="467.27" y="206.23" xlink:href="#hd"/>
<use x="494.77" y="194.23" xlink:href="#hd"/>
<path d="M491.27 194.23v34.00" class="stroke"/>
<use x="494.77" y="209.23" xlink:href="#hd"/>
<use x="538.97" y="203.23" xlink:href="#r8"/>
<path class="fill"
	d="M580.27 180.13l53.30 7.80v3.20l-53.30 -7.80"/>
<use x="577.17" y="206.23" xlink:href="#hd"/>
<path d="M580.67 206.23v-25.00" class="stroke"/>
<use x="603.47" y="203.23" xlink:href="#hd"/>
<path d="M606.97 203.23v-18.20" class="stroke"/>
<use x="629.77" y="221.23" xlink:href="#hl"/>
<use x="629.77" y="224.23" xlink:href="#hd"/>
<path d="M633.27 224.23v-35.40" class="stroke"/>
<path class="fill"
	d="M668.97 234.43l62.90 0.00v-3.20l-62.90 -0.00"/>
<path class="fill"
	d="M687.17 229.43l44.30 0.00v-3.20l-44.30 -0.00"/>
<use x="672.77" y="215.23" xlink:href="#hd"/>
<path d="M669.27 215.23v18.20" class="stroke"/>
<use x="690.67" y="194.23" xlink:href="#hd"/>
<path d="M687.17 194.23v39.20" class="stroke"/>
<use x="708.67" y="197.23" xlink:href="#hd"/>
<defs>
<path id="unat" class="fill" d="
	m96 -750
	h-32
	v716
	l32 -8
	182 -54
	v282
	h32
	v-706
	l-34 10
	-180 50
	v-290
	m0 592
	v-190
	l182 -52
	v188"/>
<use id="nt0" transform="translate(-3,5) scale(0.018)"
	xlink:href="#unat"/>
</defs>
<use x="699.67" y="197.23" xlink:href="#nt0"/>
<path d="M705.17 197.23v36.20" class="stroke"/>
<use x="721.87" y="200.23" xlink:href="#hd"/>
<path d="M718.37 200.23v33.20" class="stroke"/>
<use x="734.97" y="203.23" xlink:href="#hd"/>
<path d="M731.47 203.23v30.20" class="stroke"/>
</g>
<g stroke-width="0.70" transform="scale(1.173)" font-family="serif" font-size="13.00">
<path class="stroke" stroke-width="1"
	d="M25.77 348.23v-82.00"/>
<path class="fill"
	d="M20.77 263.23
	c10.5 1 12 -4.5 12 -3.5c0 1 -3.5 5.5 -8.5 5.5
	v84.00
	c5 0 8.5 4.5 8.5 5.5c0 1 -1.5 -4.5 -12 -3.5"/>
<use x="147.87" y="290.23" xlink:href="#rdots"/>
<path class="stroke" stroke-width="1"
	d="M143.87 290.23v-24.00"/>
<path class="stroke" stroke-width="3"
	d="M139.37 290.23v-24.00"/>
<use x="147.87" y="348.23" xlink:href="#rdots"/>
<path class="stroke" stroke-width="1"
	d="M143.87 348.23v-58.00"/>
<path class="stroke" stroke-width="3"
	d="M139.37 348.23v-58.00"/>
<path class="stroke" stroke-width="1"
	d="M215.97 290.23v-24.00"/>
<path class="stroke" stroke-width="1"
	d="M215.97 348.23v-58.00"/>
<path class="stroke" stroke-width="1"
	d="M301.27 290.23v-24.00"/>
<path class="stroke" stroke-width="1"
	d="M301.27 348.23v-58.00"/>
<path class="stroke" stroke-width="1"
	d="M386.67 290.23v-24.00"/>
<path class="stroke" stroke-width="1"
	d="M386.67 348.23v-58.00"/>
<path class="stroke" stroke-width="1"
	d="M461.37 290.23v-24.00"/>
<path class="stroke" stroke-width="1"
	d="M461.37 348.23v-58.00"/>
<path class="stroke" stroke-width="1"
	d="M538.57 290.23v-24.00"/>
<path class="stroke" stroke-width="1"
	d="M538.57 348.23v-58.00"/>
<path class="stroke" stroke-width="1"
	d="M615.77 290.23v-24.00"/>
<path class="stroke" stroke-width="1"
	d="M615.77 348.23v-58.00"/>
<path class="stroke" stroke-width="1"
	d="M682.47 290.23v-24.00"/>
<path class="stroke" stroke-width="1"
	d="M682.47 348.23v-58.00"/>
<path class="stroke" stroke-width="3"
	d="M745.87 290.23v-24.00"/>
<path class="stroke" stroke-width="1"
	d="M741.37 290.23v-24.00"/>
<use x="737.37" y="290.23" xlink:href="#rdots"/>
<path class="stroke" stroke-width="3"
	d="M745.87 348.23v-58.00"/>
<path class="stroke" stroke-width="1"
	d="M741.37 348.23v-58.00"/>
<use x="737.37" y="348.23" xlink:href="#rdots"/>
<path d="m25.77 290.23
	h721.60
	M25.77 284.23
	h721.60
	M25.77 278.23
	h721.60
	M25.77 272.23
	h721.60
	M25.77 266.23
	h721.60
	" class="stroke"/>
<path d="m25.77 348.23
	h721.60
	M25.77 342.23
	h721.60
	M25.77 336.23
	h721.60
	M25.77 330.23
	h721.60
	M25.77 324.23
	h721.60
	" class="stroke"/>
<path class="fill"
	d="M170.37 256.03c4.97 -3.36 26.61 -0.49 31.58 4.20
	v-0.23c-5.92 -6.46 -25.66 -9.33 -31.58 -3.97"/>
<text x="61.77" y="251.63">2</text>
<path class="stroke"
	d="M57.77 240.23m0 20v-20h79.10v20"/>
<use x="37.77" y="284.23" xlink:href="#tclef"/>
<use x="70.27" y="263.23" xlink:href="#hd"/>
<path d="M66.77 263.23v40.00" class="stroke"/>
<use x="70.27" y="284.23" xlink:href="#hd"/>
<use x="70.27" y="278.23" xlink:href="#hd"/>
<use x="70.27" y="272.23" xlink:href="#hd"/>
<use x="116.37" y="278.23" xlink:href="#r8"/>
<path class="fill"
	d="M163.57 284.33l35.30 7.20v-3.20l-35.30 -7.20"/>
<use x="167.37" y="260.23" xlink:href="#hl"/>
<use x="167.37" y="260.23" xlink:href="#hd"/>
<path d="M163.87 260.23v23.10" class="stroke"/>
<use x="185.97" y="266.23" xlink:href="#hd"/>
<use x="176.97" y="266.23" xlink:href="#sh0"/>
<path d="M182.47 266.23v20.90" class="stroke"/>
<use x="201.97" y="272.23" xlink:href="#hd"/>
<path d="M198.47 272.23v18.20" class="stroke"/>
<path class="fill"
	d="M224.67 296.23l61.00 10.20v-3.20l-61.00 -10.20"/>
<path class="fill"
	d="M224.97 291.33l60.30 10.10v-3.20l-60.30 -10.10"/>
<use x="228.47" y="263.23" xlink:href="#hd"/>
<path d="M224.97 263.23v32.10" class="stroke"/>
<use x="240.57" y="260.23" xlink:href="#hl"/>
<use x="240.57" y="257.23" xlink:href="#hd"/>
<path d="M237.07 257.23v40.10" class="stroke"/>
<use x="252.67" y="263.23" xlink:href="#hd"/>
<path d="M249.17 263.23v36.10" class="stroke"/>
<use x="264.67" y="272.23" xlink:href="#hd"/>
<path d="M261.17 272.23v29.20" class="stroke"/>
<use x="276.77" y="278.23" xlink:href="#hd"/>
<path d="M273.27 278.23v25.20" class="stroke"/>
<use x="288.77" y="284.23" xlink:href="#hd"/>
<path d="M285.27 284.23v21.20" class="stroke"/>
<path class="fill"
	d="M309.97 296.83l48.90 6.60v-3.20l-48.90 -6.60"/>
<use x="313.77" y="269.23" xlink:href="#hd"/>
<path d="M310.27 269.23v26.60" class="stroke"/>
<use x="337.97" y="275.23" xlink:href="#hd"/>
<path d="M334.47 275.23v23.90" class="stroke"/>
<use x="362.07" y="284.23" xlink:href="#hd"/>
<path d="M358.57 284.23v18.20" class="stroke"/>
<path class="fill"
	d="M395.27 300.43l48.90 0.00v-3.20l-48.90 -0.00"/>
<path class="fill"
	d="M395.67 295.43l36.20 0.00v-3.20l-36.20 -0.00"/>
<use x="399.17" y="269.23" xlink:href="#hd"/>
<path d="M395.67 269.23v30.20" class="stroke"/>
<use x="411.17" y="275.23" xlink:href="#hd"/>
<path d="M407.67 275.23v24.20" class="stroke"/>
<use x="423.27" y="278.23" xlink:href="#hd"/>
<path d="M419.77 278.23v21.20" class="stroke"/>
<use x="435.37" y="272.23" xlink:href="#hd"/>
<path d="M431.87 272.23v27.20" class="stroke"/>
<use x="447.37" y="263.23" xlink:href="#hd"/>
<path d="M443.87 263.23v36.20" class="stroke"/>
<path class="fill"
	d="M470.07 289.13l52.90 8.40v-3.20l-52.90 -8.40"/>
<path class="fill"
	d="M486.37 286.73l36.20 5.70v-3.20l-36.20 -5.70"/>
<use x="473.87" y="263.23" xlink:href="#hd"/>
<path d="M470.37 263.23v24.90" class="stroke"/>
<use x="489.87" y="266.23" xlink:href="#hd"/>
<path d="M486.37 266.23v24.50" class="stroke"/>
<use x="501.97" y="269.23" xlink:href="#hd"/>
<path d="M498.47 269.23v23.40" class="stroke"/>
<use x="514.07" y="272.23" xlink:href="#hd"/>
<path d="M510.57 272.23v22.30" class="stroke"/>
<use x="526.07" y="275.23" xlink:href="#hd"/>
<path d="M522.57 275.23v21.20" class="stroke"/>
<path class="fill"
	d="M547.27 289.13l52.90 8.40v-3.20l-52.90 -8.40"/>
<path class="fill"
	d="M563.57 286.73l36.20 5.70v-3.20l-36.20 -5.70"/>
<use x="551.07" y="263.23" xlink:href="#hd"/>
<path d="M547.57 263.23v24.90" class="stroke"/>
<use x="567.07" y="266.23" xlink:href="#hd"/>
<path d="M563.57 266.23v24.50" class="stroke"/>
<use x="579.17" y="269.23" xlink:href="#hd"/>
<path d="M575.67 269.23v23.40" class="stroke"/>
<use x="591.17" y="272.23" xlink:href="#hd"/>
<path d="M587.67 272.23v22.30" class="stroke"/>
<use x="603.27" y="275.23" xlink:href="#hd"/>
<path d="M599.77 275.23v21.20" class="stroke"/>
<path class="fill"
	d="M624.47 292.23l40.80 0.00v-3.20l-40.80 -0.00"/>
<path class="fill"
	d="M624.77 287.23l12.10 0.00v-3.20l-12.10 -0.00"/>
<use x="628.27" y="266.23" xlink:href="#hd"/>
<path d="M624.77 266.23v25.00" class="stroke"/>
<use x="640.37" y="269.23" xlink:href="#hd"/>
<path d="M636.87 269.23v22.00" class="stroke"/>
<use x="652.37" y="272.23" xlink:href="#hd"/>
<path d="M648.87 272.23v19.00" class="stroke"/>
<use x="668.37" y="263.23" xlink:href="#hd"/>
<path d="M664.87 263.23v28.00" class="stroke"/>
<use x="694.97" y="275.23" xlink:href="#hd"/>
<path d="M691.47 275.23v21.00" class="stroke"/>
<use x="726.87" y="278.23" xlink:href="#r8"/>
<use x="37.77" y="330.23" xlink:href="#bclef"/>
<path class="fill"
	d="M66.47 367.43l58.80 0.00v-3.20l-58.80 -0.00"/>
<path class="fill"
	d="M82.77 362.43l42.10 0.00v-3.20l-42.10 -0.00"/>
<use x="70.27" y="348.23" xlink:href="#hd"/>
<path d="M66.77 348.23v18.20" class="stroke"/>
<use x="86.27" y="321.23" xlink:href="#hd"/>
<path d="M82.77 321.23v45.20" class="stroke"/>
<use x="98.37" y="327.23" xlink:href="#hd"/>
<path d="M94.87 327.23v39.20" class="stroke"/>
<use x="116.37" y="330.23" xlink:href="#hd"/>
<use x="107.37" y="330.23" xlink:href="#sh0"/>
<path d="M112.87 330.23v36.20" class="stroke"/>
<use x="128.37" y="333.23" xlink:href="#hd"/>
<path d="M124.87 333.23v33.20" class="stroke"/>
<use x="167.37" y="330.23" xlink:href="#hd"/>
<use x="158.37" y="330.23" xlink:href="#sh0"/>
<path d="M163.87 330.23v25.00" class="stroke"/>
<use x="167.37" y="336.23" xlink:href="#hd"/>
<use x="201.97" y="330.23" xlink:href="#hd"/>
<path d="M198.47 330.23v28.00" class="stroke"/>
<path class="fill"
	d="M198.47 358.23c0.6 -5.6 9.6 -9 5.6 -18.4
	1.6 6 -1.3 11.6 -5.6 12.8
"/>
<use x="201.97" y="339.23" xlink:href="#hd"/>
<use x="228.47" y="342.23" xlink:href="#hd"/>
<path d="M231.97 342.23v-25.00" class="stroke"/>
<use x="228.47" y="336.23" xlink:href="#hd"/>
<use x="276.77" y="336.23" xlink:href="#r8"/>
<path class="fill"
	d="M309.97 356.13l61.00 0.00v-3.20l-61.00 -0.00"/>
<path class="fill"
	d="M310.27 351.13l60.30 0.00v-3.20l-60.30 -0.00"/>
<use x="313.77" y="333.23" xlink:href="#hd"/>
<path d="M310.27 333.23v21.90" class="stroke"/>
<use x="313.77" y="339.23" xlink:href="#hd"/>
<use x="325.87" y="327.23" xlink:href="#hd"/>
<path d="M322.37 327.23v27.90" class="stroke"/>
<use x="337.97" y="333.23" xlink:href="#hd"/>
<path d="M334.47 333.23v21.90" class="stroke"/>
<use x="337.97" y="339.23" xlink:href="#hd"/>
<use x="349.97" y="327.23" xlink:href="#hd"/>
<path d="M346.47 327.23v27.90" class="stroke"/>
<use x="362.07" y="333.23" xlink:href="#hd"/>
<path d="M358.57 333.23v21.90" class="stroke"/>
<use x="362.07" y="339.23" xlink:href="#hd"/>
<use x="374.17" y="327.23" xlink:href="#hd"/>
<path d="M370.67 327.23v27.90" class="stroke"/>
<path class="fill"
	d="M402.27 307.93l24.80 7.90v3.20l-24.80 -7.90"/>
<use x="399.17" y="327.23" xlink:href="#hd"/>
<path d="M402.67 327.23v-18.20" class="stroke"/>
<use x="423.27" y="348.23" xlink:href="#hd"/>
<path d="M426.77 348.23v-31.50" class="stroke"/>
<use x="447.37" y="336.23" xlink:href="#r8"/>
<use x="473.87" y="333.23" xlink:href="#hd"/>
<path d="M470.37 333.23v25.00" class="stroke"/>
<use x="473.87" y="339.23" xlink:href="#hd"/>
<use x="514.07" y="336.23" xlink:href="#r8"/>
<use x="551.07" y="333.23" xlink:href="#hd"/>
<path d="M547.57 333.23v25.00" class="stroke"/>
<use x="551.07" y="339.23" xlink:href="#hd"/>
<use x="591.17" y="327.23" xlink:href="#hd"/>
<path d="M587.67 327.23v25.00" class="stroke"/>
<path class="fill"
	d="M587.67 352.23c0.6 -5.6 9.6 -9 5.6 -18.4
	1.6 6 -1.3 11.6 -5.6 12.8
"/>
<use x="591.17" y="333.23" xlink:href="#hd"/>
<path class="fill"
	d="M624.47 356.13l40.80 0.00v-3.20l-40.80 -0.00"/>
<path class="fill"
	d="M624.77 351.13l12.10 0.00v-3.20l-12.10 -0.00"/>
<use x="628.27" y="330.23" xlink:href="#hd"/>
<path d="M624.77 330.23v24.90" class="stroke"/>
<use x="640.37" y="333.23" xlink:href="#hd"/>
<path d="M636.87 333.23v21.90" class="stroke"/>
<use x="652.37" y="336.23" xlink:href="#hd"/>
<path d="M648.87 336.23v18.90" class="stroke"/>
<use x="668.37" y="327.23" xlink:href="#hd"/>
<path d="M664.87 327.23v27.90" class="stroke"/>
<path class="fill"
	d="M698.07 319.93l32.70 8.60v3.20l-32.70 -8.60"/>
<use x="694.97" y="339.23" xlink:href="#hd"/>
<path d="M698.47 339.23v-18.20" class="stroke"/>
<use x="710.87" y="348.23" xlink:href="#hd"/>
<path d="M714.37 348.23v-23.00" class="stroke"/>
<use x="726.87" y="354.23" xlink:href="#hl"/>
<use x="726.87" y="360.23" xlink:href="#hl"/>
<use x="726.87" y="360.23" xlink:href="#hd"/>
<path d="M730.37 360.23v-30.70" class="stroke"/>
</g>
</svg>
