<?xml version="1.0" standalone="no"?>
<!DOCTYPE svg PUBLIC "-//W3C//DTD SVG 1.1//EN"
	"http://www.w3.org/Graphics/SVG/1.1/DTD/svg11.dtd">
<svg xmlns="http://www.w3.org/2000/svg" version="1.1"
	xmlns:xlink="http://www.w3.org/1999/xlink"
	color="black"
	width="907.20px" height="1056.00px">
<style type="text/css">
.fill {fill: currentColor}
.stroke {stroke: currentColor; fill: none}
text{white-space: pre}
</style>
<title>./K516f-11-11-11-11-11-11-11-11-11-11-11-11-11-11-11-11.abc page 1</title>
<!-- Creator: abcm2ps-8.13.8 -->
<!-- CreationDate: Aug 14, 2017 10:21 -->
<!-- CommandLine: -v -q -O= ./K516f-11-11-11-11-11-11-11-11-11-11-11-11-11-11-11-11.abc -->
<rect width="100%" height="100%" fill="white"/>
<g stroke-width="0.70" transform="scale(1.173)">
<!-- title: 11-11-11-11-11-11-11-11-11-11-11-11-11-11-11-11 -->
</g>
<g stroke-width="0.70" transform="scale(1.173)" font-family="serif" font-size="20.00">
<text x="386.57" y="54.23" text-anchor="middle">11-11-11-11-11-11-11-11-11-11-11-11-11-11-11-11</text>
</g>
<g stroke-width="0.70" transform="scale(1.173)" font-family="serif" font-size="20.00">
<!-- subtitle: $1K.516f::3:87:165:61:135:47:147:33:102:4:31:164:144:59:173:78::$0 -->
</g>
<g stroke-width="0.70" transform="scale(1.173)" font-family="Courier" font-size="12.00" font-weight="bold">
<text x="386.57" y="74.03" text-anchor="middle">K.516f::3:87:165:61:135:47:147:33:102:4:31:164:144:59:173:78::</text>
</g>
<g stroke-width="0.70" transform="scale(1.173)" font-family="Courier" font-size="12.00" font-weight="bold">
<!-- subtitle: $1Perm. No.: 341774850224917$0 -->
<text x="386.57" y="93.03" text-anchor="middle">Perm. No.: 341774850224917</text>
</g>
<g stroke-width="0.70" transform="scale(0.821)" font-family="Courier" font-size="12.00" font-weight="bold">
<defs>
<ellipse id="hd" rx="4.1" ry="2.9"
	transform="rotate(-20)" class="fill"/>
</defs>
<use x="123.39" y="167.32" xlink:href="#hd"/>
<path d="M126.89 167.32v-21.00" class="stroke"/>
<path class="fill"
	d="M126.89 146.32c0.6 5.6 9.6 9 5.6 18.4
	1.6 -6 -1.3 -11.6 -5.6 -12.8
"/>
</g>
<g stroke-width="0.70" transform="scale(1.173)" font-family="serif" font-size="15.00" font-weight="bold">
<text x="95.47" y="119.23">= 111</text>
<path class="stroke" stroke-width="1"
	d="M25.77 215.23v-82.00"/>
<path class="fill"
	d="M20.77 130.23
	c10.5 1 12 -4.5 12 -3.5c0 1 -3.5 5.5 -8.5 5.5
	v84.00
	c5 0 8.5 4.5 8.5 5.5c0 1 -1.5 -4.5 -12 -3.5"/>
<defs>
<g id="rdots" class="fill">
	<circle cx="0" cy="-9" r="1.2"/>
	<circle cx="0" cy="-15" r="1.2"/>
</g>
</defs>
<use x="84.77" y="157.23" xlink:href="#rdots"/>
<path class="stroke" stroke-width="1"
	d="M80.77 157.23v-24.00"/>
<path class="stroke" stroke-width="3"
	d="M76.27 157.23v-24.00"/>
<use x="84.77" y="215.23" xlink:href="#rdots"/>
<path class="stroke" stroke-width="1"
	d="M80.77 215.23v-58.00"/>
<path class="stroke" stroke-width="3"
	d="M76.27 215.23v-58.00"/>
<path class="stroke" stroke-width="1"
	d="M156.17 157.23v-24.00"/>
<path class="stroke" stroke-width="1"
	d="M156.17 215.23v-58.00"/>
<path class="stroke" stroke-width="1"
	d="M226.47 157.23v-24.00"/>
<path class="stroke" stroke-width="1"
	d="M226.47 215.23v-58.00"/>
<path class="stroke" stroke-width="1"
	d="M296.87 157.23v-24.00"/>
<path class="stroke" stroke-width="1"
	d="M296.87 215.23v-58.00"/>
<path class="stroke" stroke-width="1"
	d="M376.27 157.23v-24.00"/>
<path class="stroke" stroke-width="1"
	d="M376.27 215.23v-58.00"/>
<path class="stroke" stroke-width="1"
	d="M471.07 157.23v-24.00"/>
<path class="stroke" stroke-width="1"
	d="M471.07 215.23v-58.00"/>
<path class="stroke" stroke-width="1"
	d="M550.47 157.23v-24.00"/>
<path class="stroke" stroke-width="1"
	d="M550.47 215.23v-58.00"/>
<path class="stroke" stroke-width="1"
	d="M653.07 157.23v-24.00"/>
<path class="stroke" stroke-width="1"
	d="M653.07 215.23v-58.00"/>
<path class="stroke" stroke-width="3"
	d="M745.87 157.23v-24.00"/>
<path class="stroke" stroke-width="1"
	d="M741.37 157.23v-24.00"/>
<use x="737.37" y="157.23" xlink:href="#rdots"/>
<path class="stroke" stroke-width="3"
	d="M745.87 215.23v-58.00"/>
<path class="stroke" stroke-width="1"
	d="M741.37 215.23v-58.00"/>
<use x="737.37" y="215.23" xlink:href="#rdots"/>
<path d="m25.77 157.23
	h721.60
	M25.77 151.23
	h721.60
	M25.77 145.23
	h721.60
	M25.77 139.23
	h721.60
	M25.77 133.23
	h721.60
	" class="stroke"/>
<path d="m25.77 215.23
	h721.60
	M25.77 209.23
	h721.60
	M25.77 203.23
	h721.60
	M25.77 197.23
	h721.60
	M25.77 191.23
	h721.60
	" class="stroke"/>
<path class="fill"
	d="M242.97 135.63c5.87 -2.91 31.39 2.30 37.25 7.60
	v-0.24c-6.99 -7.06 -30.27 -12.27 -37.25 -7.36"/>
</g>
<g stroke-width="0.70" transform="scale(1.173)" font-family="serif" font-size="13.00">
<text x="657.07" y="118.63">1</text>
<path class="stroke"
	d="M653.07 107.23m0 20v-20h86.40v20"/>
<defs>
<path id="utclef" class="fill" d="m-50 -90
	c-72 -41 -72 -158 52 -188
	150 -10 220 188 90 256
	-114 52 -275 0 -293 -136
	-15 -181 93 -229 220 -334
	88 -87 79 -133 62 -210
	-51 33 -94 105 -89 186
	17 267 36 374 49 574
	6 96 -19 134 -77 135
	-80 1 -126 -93 -61 -133
	85 -41 133 101 31 105
	23 17 92 37 90 -92
	-10 -223 -39 -342 -50 -617
	0 -90 0 -162 96 -232
	56 72 63 230 22 289
	-74 106 -257 168 -255 316
	9 153 148 185 252 133
	86 -65 29 -192 -80 -176
	-71 12 -105 67 -59 124"/>
<use id="tclef" transform="translate(0,6) scale(0.045)"
	xlink:href="#utclef"/>
</defs>
<use x="37.77" y="151.23" xlink:href="#tclef"/>
<g font-family="serif" font-size="16" font-weight="bold" font-style="normal"
	transform="translate(56.27,156.73) scale(1.2,1)">
	<text text-anchor="middle">8</text>
	<text y="-12" text-anchor="middle">3</text>
</g>
<path class="fill"
	d="M94.47 159.83l41.90 3.10v-3.20l-41.90 -3.10"/>
<use x="98.27" y="130.23" xlink:href="#hd"/>
<path d="M94.77 130.23v28.70" class="stroke"/>
<use x="118.87" y="142.23" xlink:href="#hd"/>
<path d="M115.37 142.23v18.20" class="stroke"/>
<use x="139.57" y="136.23" xlink:href="#hd"/>
<path d="M136.07 136.23v25.70" class="stroke"/>
<path class="fill"
	d="M164.77 159.83l41.90 3.10v-3.20l-41.90 -3.10"/>
<use x="168.67" y="130.23" xlink:href="#hd"/>
<path d="M165.17 130.23v28.70" class="stroke"/>
<use x="189.27" y="142.23" xlink:href="#hd"/>
<path d="M185.77 142.23v18.20" class="stroke"/>
<use x="209.87" y="136.23" xlink:href="#hd"/>
<path d="M206.37 136.23v25.70" class="stroke"/>
<path class="fill"
	d="M235.17 162.83l41.90 7.70v-3.20l-41.90 -7.70"/>
<use x="238.97" y="139.23" xlink:href="#hd"/>
<path d="M235.47 139.23v22.60" class="stroke"/>
<use x="259.57" y="145.23" xlink:href="#hd"/>
<path d="M256.07 145.23v20.40" class="stroke"/>
<use x="280.27" y="151.23" xlink:href="#hd"/>
<path d="M276.77 151.23v18.20" class="stroke"/>
<path class="fill"
	d="M305.47 167.53l51.00 -4.40v-3.20l-51.00 4.40"/>
<path class="fill"
	d="M326.47 160.73l14.80 -1.30v-3.20l-14.80 1.30"/>
<use x="309.37" y="142.23" xlink:href="#hd"/>
<path d="M305.87 142.23v24.30" class="stroke"/>
<use x="329.97" y="136.23" xlink:href="#hd"/>
<path d="M326.47 136.23v28.50" class="stroke"/>
<use x="344.77" y="142.23" xlink:href="#hd"/>
<path d="M341.27 142.23v21.20" class="stroke"/>
<use x="359.67" y="130.23" xlink:href="#hd"/>
<path d="M356.17 130.23v31.90" class="stroke"/>
<path class="fill"
	d="M390.87 159.23l52.50 0.00v-3.20l-52.50 -0.00"/>
<path class="fill"
	d="M413.07 154.23l14.80 0.00v-3.20l-14.80 -0.00"/>
<use x="394.77" y="133.23" xlink:href="#hd"/>
<defs>
<path id="usharp" class="fill" d="
	m136 -702
	v890
	h32
	v-890
	m128 840
	h32
	v-888
	h-32
	m-232 286
	v116
	l338 -96
	v-116
	m-338 442
	v116
	l338 -98
	v-114"/>
<use id="sh0" transform="translate(-4,5) scale(0.018)"
	xlink:href="#usharp"/>
</defs>
<use x="385.77" y="133.23" xlink:href="#sh0"/>
<path d="M391.27 133.23v25.00" class="stroke"/>
<use x="416.57" y="133.23" xlink:href="#hd"/>
<path d="M413.07 133.23v25.00" class="stroke"/>
<use x="431.47" y="139.23" xlink:href="#hd"/>
<path d="M427.97 139.23v19.00" class="stroke"/>
<defs>
<path id="hl" class="stroke" d="m-6 0h12"/>
</defs>
<use x="446.57" y="127.23" xlink:href="#hl"/>
<use x="446.57" y="127.23" xlink:href="#hd"/>
<path d="M443.07 127.23v31.00" class="stroke"/>
<path class="fill"
	d="M479.77 159.23l51.00 0.00v-3.20l-51.00 -0.00"/>
<path class="fill"
	d="M500.67 154.23l14.80 0.00v-3.20l-14.80 -0.00"/>
<use x="483.57" y="130.23" xlink:href="#hd"/>
<path d="M480.07 130.23v28.00" class="stroke"/>
<use x="504.17" y="130.23" xlink:href="#hd"/>
<path d="M500.67 130.23v28.00" class="stroke"/>
<use x="519.07" y="139.23" xlink:href="#hd"/>
<path d="M515.57 139.23v19.00" class="stroke"/>
<use x="533.87" y="127.23" xlink:href="#hl"/>
<use x="533.87" y="124.23" xlink:href="#hd"/>
<path d="M530.37 124.23v34.00" class="stroke"/>
<path class="fill"
	d="M559.17 159.23l78.20 0.00v-3.20l-78.20 -0.00"/>
<path class="fill"
	d="M559.47 154.23l77.50 0.00v-3.20l-77.50 -0.00"/>
<use x="562.97" y="136.23" xlink:href="#hd"/>
<path d="M559.47 136.23v22.00" class="stroke"/>
<use x="577.87" y="127.23" xlink:href="#hl"/>
<use x="577.87" y="121.23" xlink:href="#hl"/>
<use x="577.87" y="121.23" xlink:href="#hd"/>
<path d="M574.37 121.23v37.00" class="stroke"/>
<use x="592.87" y="127.23" xlink:href="#hl"/>
<use x="592.87" y="124.23" xlink:href="#hd"/>
<path d="M589.37 124.23v34.00" class="stroke"/>
<use x="607.67" y="130.23" xlink:href="#hd"/>
<path d="M604.17 130.23v28.00" class="stroke"/>
<use x="622.57" y="127.23" xlink:href="#hl"/>
<use x="622.57" y="127.23" xlink:href="#hd"/>
<path d="M619.07 127.23v31.00" class="stroke"/>
<use x="640.57" y="133.23" xlink:href="#hd"/>
<use x="631.57" y="133.23" xlink:href="#sh0"/>
<path d="M637.07 133.23v25.00" class="stroke"/>
<use x="665.57" y="130.23" xlink:href="#hd"/>
<path d="M662.07 130.23v40.00" class="stroke"/>
<use x="665.57" y="151.23" xlink:href="#hd"/>
<use x="665.57" y="145.23" xlink:href="#hd"/>
<use x="665.57" y="139.23" xlink:href="#hd"/>
<defs>
<path id="r8e" class="fill" d="m 0 0
	c-1.5 1.5 -2.4 2 -3.6 2
	2.4 -2.8 -2.8 -4 -2.8 -1.2
	c0 2.7 4.3 2.4 5.9 0.6"/>
<g id="r8">
	<path d="m3.3 -4l-3.4 9.6" class="stroke"/>
	<use x="3.4" y="-4" xlink:href="#r8e"/>
</g>
</defs>
<use x="718.97" y="145.23" xlink:href="#r8"/>
<defs>
<path id="ubclef" class="fill" d="m-200 -87
	c124 -35 222 -78 254 -236
	43 -228 -167 -246 -192 -103
	59 -80 157 22 92 78
	-62 47 -115 -22 -106 -88
	21 -141 270 -136 274 52
	-1 175 -106 264 -322 297
	m357 -250
	c0 -36 51 -34 51 0
	0 37 -51 36 -51 0
	m-2 -129
	c0 -36 51 -34 51 0
	0 38 -51 37 -51 0"/>
<use id="bclef" transform="translate(0,18) scale(0.045)"
	xlink:href="#ubclef"/>
</defs>
<use x="37.77" y="197.23" xlink:href="#bclef"/>
<g font-family="serif" font-size="16" font-weight="bold" font-style="normal"
	transform="translate(56.27,214.73) scale(1.2,1)">
	<text text-anchor="middle">8</text>
	<text y="-12" text-anchor="middle">3</text>
</g>
<use x="98.27" y="200.23" xlink:href="#hd"/>
<path d="M94.77 200.23v25.00" class="stroke"/>
<use x="98.27" y="206.23" xlink:href="#hd"/>
<use x="139.57" y="203.23" xlink:href="#r8"/>
<use x="168.67" y="200.23" xlink:href="#hd"/>
<path d="M165.17 200.23v25.00" class="stroke"/>
<use x="168.67" y="206.23" xlink:href="#hd"/>
<use x="209.87" y="194.23" xlink:href="#hd"/>
<path d="M206.37 194.23v31.00" class="stroke"/>
<path class="fill"
	d="M206.37 225.23c0.6 -5.6 9.6 -9 5.6 -18.4
	1.6 6 -1.3 11.6 -5.6 12.8
"/>
<use x="209.87" y="206.23" xlink:href="#hd"/>
<use x="238.97" y="209.23" xlink:href="#hd"/>
<path d="M242.47 209.23v-21.00" class="stroke"/>
<use x="280.27" y="203.23" xlink:href="#r8"/>
<use x="309.37" y="194.23" xlink:href="#hd"/>
<path d="M305.87 194.23v25.00" class="stroke"/>
<use x="309.37" y="200.23" xlink:href="#hd"/>
<use x="359.67" y="203.23" xlink:href="#r8"/>
<path class="fill"
	d="M397.87 182.23l52.50 0.00v3.20l-52.50 -0.00"/>
<use x="394.77" y="203.23" xlink:href="#hd"/>
<path d="M398.27 203.23v-20.00" class="stroke"/>
<use x="416.57" y="203.23" xlink:href="#hd"/>
<path d="M420.07 203.23v-20.00" class="stroke"/>
<use x="446.57" y="203.23" xlink:href="#hd"/>
<path d="M450.07 203.23v-20.00" class="stroke"/>
<use x="483.57" y="209.23" xlink:href="#hd"/>
<path d="M487.07 209.23v-25.00" class="stroke"/>
<use x="483.57" y="203.23" xlink:href="#hd"/>
<use x="533.87" y="203.23" xlink:href="#r8"/>
<path class="fill"
	d="M566.17 180.03l60.20 8.00v3.20l-60.20 -8.00"/>
<use x="562.97" y="206.23" xlink:href="#hd"/>
<path d="M566.47 206.23v-25.20" class="stroke"/>
<use x="592.87" y="203.23" xlink:href="#hd"/>
<path d="M596.37 203.23v-18.20" class="stroke"/>
<use x="622.57" y="221.23" xlink:href="#hl"/>
<use x="622.57" y="224.23" xlink:href="#hd"/>
<path d="M626.07 224.23v-35.30" class="stroke"/>
<path class="fill"
	d="M661.67 234.43l69.00 0.00v-3.20l-69.00 -0.00"/>
<path class="fill"
	d="M682.67 229.43l47.70 0.00v-3.20l-47.70 -0.00"/>
<use x="665.57" y="215.23" xlink:href="#hd"/>
<path d="M662.07 215.23v18.20" class="stroke"/>
<use x="686.17" y="194.23" xlink:href="#hd"/>
<path d="M682.67 194.23v39.20" class="stroke"/>
<use x="704.17" y="197.23" xlink:href="#hd"/>
<defs>
<path id="unat" class="fill" d="
	m96 -750
	h-32
	v716
	l32 -8
	182 -54
	v282
	h32
	v-706
	l-34 10
	-180 50
	v-290
	m0 592
	v-190
	l182 -52
	v188"/>
<use id="nt0" transform="translate(-3,5) scale(0.018)"
	xlink:href="#unat"/>
</defs>
<use x="695.17" y="197.23" xlink:href="#nt0"/>
<path d="M700.67 197.23v36.20" class="stroke"/>
<use x="718.97" y="200.23" xlink:href="#hd"/>
<path d="M715.47 200.23v33.20" class="stroke"/>
<use x="733.87" y="203.23" xlink:href="#hd"/>
<path d="M730.37 203.23v30.20" class="stroke"/>
<path class="fill"
	d="M398.87 227.23l52.50 0.00v-3.20l-52.50 -0.00"/>
<use x="402.77" y="206.23" xlink:href="#hd"/>
<path d="M399.27 206.23v20.00" class="stroke"/>
<use x="424.57" y="206.23" xlink:href="#hd"/>
<path d="M421.07 206.23v20.00" class="stroke"/>
<use x="454.57" y="206.23" xlink:href="#hd"/>
<path d="M451.07 206.23v20.00" class="stroke"/>
</g>
<g stroke-width="0.70" transform="scale(1.173)" font-family="serif" font-size="13.00">
<path class="stroke" stroke-width="1"
	d="M25.77 348.23v-82.00"/>
<path class="fill"
	d="M20.77 263.23
	c10.5 1 12 -4.5 12 -3.5c0 1 -3.5 5.5 -8.5 5.5
	v84.00
	c5 0 8.5 4.5 8.5 5.5c0 1 -1.5 -4.5 -12 -3.5"/>
<use x="145.57" y="290.23" xlink:href="#rdots"/>
<path class="stroke" stroke-width="1"
	d="M141.57 290.23v-24.00"/>
<path class="stroke" stroke-width="3"
	d="M137.07 290.23v-24.00"/>
<use x="145.57" y="348.23" xlink:href="#rdots"/>
<path class="stroke" stroke-width="1"
	d="M141.57 348.23v-58.00"/>
<path class="stroke" stroke-width="3"
	d="M137.07 348.23v-58.00"/>
<path class="stroke" stroke-width="1"
	d="M217.67 290.23v-24.00"/>
<path class="stroke" stroke-width="1"
	d="M217.67 348.23v-58.00"/>
<path class="stroke" stroke-width="1"
	d="M282.47 290.23v-24.00"/>
<path class="stroke" stroke-width="1"
	d="M282.47 348.23v-58.00"/>
<path class="stroke" stroke-width="1"
	d="M347.57 290.23v-24.00"/>
<path class="stroke" stroke-width="1"
	d="M347.57 348.23v-58.00"/>
<path class="stroke" stroke-width="1"
	d="M437.37 290.23v-24.00"/>
<path class="stroke" stroke-width="1"
	d="M437.37 348.23v-58.00"/>
<path class="stroke" stroke-width="1"
	d="M519.77 290.23v-24.00"/>
<path class="stroke" stroke-width="1"
	d="M519.77 348.23v-58.00"/>
<path class="stroke" stroke-width="1"
	d="M602.07 290.23v-24.00"/>
<path class="stroke" stroke-width="1"
	d="M602.07 348.23v-58.00"/>
<path class="stroke" stroke-width="1"
	d="M680.27 290.23v-24.00"/>
<path class="stroke" stroke-width="1"
	d="M680.27 348.23v-58.00"/>
<path class="stroke" stroke-width="3"
	d="M745.87 290.23v-24.00"/>
<path class="stroke" stroke-width="1"
	d="M741.37 290.23v-24.00"/>
<use x="737.37" y="290.23" xlink:href="#rdots"/>
<path class="stroke" stroke-width="3"
	d="M745.87 348.23v-58.00"/>
<path class="stroke" stroke-width="1"
	d="M741.37 348.23v-58.00"/>
<use x="737.37" y="348.23" xlink:href="#rdots"/>
<path d="m25.77 290.23
	h721.60
	M25.77 284.23
	h721.60
	M25.77 278.23
	h721.60
	M25.77 272.23
	h721.60
	M25.77 266.23
	h721.60
	" class="stroke"/>
<path d="m25.77 348.23
	h721.60
	M25.77 342.23
	h721.60
	M25.77 336.23
	h721.60
	M25.77 330.23
	h721.60
	M25.77 324.23
	h721.60
	" class="stroke"/>
<text x="61.77" y="251.63">2</text>
<path class="stroke"
	d="M57.77 240.23m0 20v-20h76.80v20"/>
<use x="37.77" y="284.23" xlink:href="#tclef"/>
<use x="70.27" y="263.23" xlink:href="#hd"/>
<path d="M66.77 263.23v40.00" class="stroke"/>
<use x="70.27" y="284.23" xlink:href="#hd"/>
<use x="70.27" y="278.23" xlink:href="#hd"/>
<use x="70.27" y="272.23" xlink:href="#hd"/>
<use x="114.57" y="278.23" xlink:href="#r8"/>
<path class="fill"
	d="M161.17 295.33l23.60 5.20v-3.20l-23.60 -5.20"/>
<path class="fill"
	d="M161.57 290.43l11.50 2.50v-3.20l-11.50 -2.50"/>
<use x="165.07" y="266.23" xlink:href="#hd"/>
<use x="156.07" y="266.23" xlink:href="#sh0"/>
<path d="M161.57 266.23v28.20" class="stroke"/>
<use x="176.47" y="272.23" xlink:href="#hd"/>
<path d="M172.97 272.23v24.70" class="stroke"/>
<use x="187.97" y="281.23" xlink:href="#hd"/>
<path d="M184.47 281.23v18.20" class="stroke"/>
<use x="204.07" y="266.23" xlink:href="#hd"/>
<path d="M200.57 266.23v21.00" class="stroke"/>
<path class="fill"
	d="M200.57 287.23c0.6 -5.6 9.6 -9 5.6 -18.4
	1.6 6 -1.3 11.6 -5.6 12.8
"/>
<use x="230.17" y="263.23" xlink:href="#hd"/>
<path d="M226.67 263.23v21.00" class="stroke"/>
<path class="fill"
	d="M226.67 284.23c0.6 -5.6 9.6 -9 5.6 -18.4
	1.6 6 -1.3 11.6 -5.6 12.8
"/>
<use x="254.07" y="272.23" xlink:href="#hd"/>
<path d="M250.57 272.23v21.00" class="stroke"/>
<path class="fill"
	d="M291.07 298.33l23.60 5.20v-3.20l-23.60 -5.20"/>
<path class="fill"
	d="M291.47 293.43l11.50 2.50v-3.20l-11.50 -2.50"/>
<use x="294.97" y="269.23" xlink:href="#hd"/>
<path d="M291.47 269.23v28.20" class="stroke"/>
<use x="306.47" y="275.23" xlink:href="#hd"/>
<path d="M302.97 275.23v24.70" class="stroke"/>
<use x="317.87" y="284.23" xlink:href="#hd"/>
<path d="M314.37 284.23v18.20" class="stroke"/>
<use x="333.97" y="269.23" xlink:href="#hd"/>
<path d="M330.47 269.23v21.00" class="stroke"/>
<path class="fill"
	d="M330.47 290.23c0.6 -5.6 9.6 -9 5.6 -18.4
	1.6 6 -1.3 11.6 -5.6 12.8
"/>
<use x="360.07" y="272.23" xlink:href="#hd"/>
<path d="M356.57 272.23v21.00" class="stroke"/>
<path class="fill"
	d="M356.57 293.23c0.6 -5.6 9.6 -9 5.6 -18.4
	1.6 6 -1.3 11.6 -5.6 12.8
"/>
<use x="390.47" y="284.23" xlink:href="#hd"/>
<path d="M393.97 284.23v-21.00" class="stroke"/>
<path class="fill"
	d="M446.07 292.83l46.60 3.20v-3.20l-46.60 -3.20"/>
<use x="449.87" y="263.23" xlink:href="#hd"/>
<path d="M446.37 263.23v28.60" class="stroke"/>
<use x="472.87" y="275.23" xlink:href="#hd"/>
<path d="M469.37 275.23v18.20" class="stroke"/>
<use x="495.77" y="269.23" xlink:href="#hd"/>
<path d="M492.27 269.23v25.80" class="stroke"/>
<path class="fill"
	d="M528.37 292.83l46.60 3.20v-3.20l-46.60 -3.20"/>
<use x="532.27" y="263.23" xlink:href="#hd"/>
<path d="M528.77 263.23v28.60" class="stroke"/>
<use x="555.17" y="275.23" xlink:href="#hd"/>
<path d="M551.67 275.23v18.20" class="stroke"/>
<use x="578.17" y="269.23" xlink:href="#hd"/>
<path d="M574.67 269.23v25.80" class="stroke"/>
<path class="fill"
	d="M610.77 288.53l12.20 -3.10v-3.20l-12.20 3.10"/>
<path class="fill"
	d="M611.07 283.43l11.50 -2.90v-3.20l-11.50 2.90"/>
<use x="614.57" y="266.23" xlink:href="#hd"/>
<path d="M611.07 266.23v21.20" class="stroke"/>
<use x="626.07" y="260.23" xlink:href="#hl"/>
<use x="626.07" y="260.23" xlink:href="#hd"/>
<path d="M622.57 260.23v24.30" class="stroke"/>
<use x="637.57" y="281.23" xlink:href="#hd"/>
<path d="M641.07 281.23v-21.00" class="stroke"/>
<path class="fill"
	d="M641.07 260.23c0.6 5.6 9.6 9 5.6 18.4
	1.6 -6 -1.3 -11.6 -5.6 -12.8
"/>
<path class="fill"
	d="M652.47 300.53l12.20 -3.10v-3.20l-12.20 3.10"/>
<path class="fill"
	d="M652.77 295.43l11.50 -2.90v-3.20l-11.50 2.90"/>
<use x="656.27" y="278.23" xlink:href="#hd"/>
<path d="M652.77 278.23v21.20" class="stroke"/>
<use x="667.77" y="272.23" xlink:href="#hd"/>
<path d="M664.27 272.23v24.30" class="stroke"/>
<path class="fill"
	d="M695.87 255.93l15.50 5.70v3.20l-15.50 -5.70"/>
<use x="692.77" y="275.23" xlink:href="#hd"/>
<path d="M696.27 275.23v-18.20" class="stroke"/>
<use x="707.57" y="296.23" xlink:href="#hl"/>
<use x="707.57" y="296.23" xlink:href="#hd"/>
<path d="M711.07 296.23v-33.70" class="stroke"/>
<use x="722.37" y="278.23" xlink:href="#r8"/>
<use x="37.77" y="330.23" xlink:href="#bclef"/>
<path class="fill"
	d="M66.47 367.43l56.40 0.00v-3.20l-56.40 -0.00"/>
<path class="fill"
	d="M81.57 362.43l40.90 0.00v-3.20l-40.90 -0.00"/>
<use x="70.27" y="348.23" xlink:href="#hd"/>
<path d="M66.77 348.23v18.20" class="stroke"/>
<use x="85.07" y="321.23" xlink:href="#hd"/>
<path d="M81.57 321.23v45.20" class="stroke"/>
<use x="96.57" y="327.23" xlink:href="#hd"/>
<path d="M93.07 327.23v39.20" class="stroke"/>
<use x="114.57" y="330.23" xlink:href="#hd"/>
<use x="105.57" y="330.23" xlink:href="#sh0"/>
<path d="M111.07 330.23v36.20" class="stroke"/>
<use x="126.07" y="333.23" xlink:href="#hd"/>
<path d="M122.57 333.23v33.20" class="stroke"/>
<use x="165.07" y="324.23" xlink:href="#hd"/>
<path d="M161.57 324.23v34.00" class="stroke"/>
<use x="165.07" y="339.23" xlink:href="#hd"/>
<use x="204.07" y="324.23" xlink:href="#hd"/>
<path d="M200.57 324.23v34.00" class="stroke"/>
<path class="fill"
	d="M200.57 358.23c0.6 -5.6 9.6 -9 5.6 -18.4
	1.6 6 -1.3 11.6 -5.6 12.8
"/>
<use x="204.07" y="339.23" xlink:href="#hd"/>
<path class="fill"
	d="M226.37 370.53l39.30 -9.40v-3.20l-39.30 9.40"/>
<path class="fill"
	d="M226.67 365.43l11.50 -2.70v-3.20l-11.50 2.70"/>
<use x="230.17" y="348.23" xlink:href="#hd"/>
<path d="M226.67 348.23v21.20" class="stroke"/>
<use x="241.67" y="342.23" xlink:href="#hd"/>
<path d="M238.17 342.23v24.50" class="stroke"/>
<use x="254.07" y="327.23" xlink:href="#hd"/>
<path d="M250.57 327.23v36.50" class="stroke"/>
<use x="268.87" y="321.23" xlink:href="#hd"/>
<path d="M265.37 321.23v39.00" class="stroke"/>
<use x="294.97" y="327.23" xlink:href="#hd"/>
<path d="M291.47 327.23v31.00" class="stroke"/>
<use x="294.97" y="339.23" xlink:href="#hd"/>
<use x="333.97" y="327.23" xlink:href="#hd"/>
<path d="M330.47 327.23v31.00" class="stroke"/>
<path class="fill"
	d="M330.47 358.23c0.6 -5.6 9.6 -9 5.6 -18.4
	1.6 6 -1.3 11.6 -5.6 12.8
"/>
<use x="333.97" y="339.23" xlink:href="#hd"/>
<path class="fill"
	d="M356.27 361.23l65.50 9.30v-3.20l-65.50 -9.30"/>
<path class="fill"
	d="M356.57 356.23l64.80 9.20v-3.20l-64.80 -9.20"/>
<use x="360.07" y="327.23" xlink:href="#hd"/>
<path d="M356.57 327.23v33.00" class="stroke"/>
<use x="378.07" y="330.23" xlink:href="#hd"/>
<use x="369.07" y="330.23" xlink:href="#sh0"/>
<path d="M374.57 330.23v32.60" class="stroke"/>
<use x="390.47" y="327.23" xlink:href="#hd"/>
<path d="M386.97 327.23v37.30" class="stroke"/>
<use x="401.97" y="336.23" xlink:href="#hd"/>
<path d="M398.47 336.23v29.90" class="stroke"/>
<use x="413.37" y="342.23" xlink:href="#hd"/>
<path d="M409.87 342.23v25.60" class="stroke"/>
<use x="424.87" y="348.23" xlink:href="#hd"/>
<path d="M421.37 348.23v21.20" class="stroke"/>
<path class="fill"
	d="M446.07 356.13l58.00 0.00v-3.20l-58.00 -0.00"/>
<path class="fill"
	d="M446.37 351.13l57.40 0.00v-3.20l-57.40 -0.00"/>
<use x="449.87" y="333.23" xlink:href="#hd"/>
<path d="M446.37 333.23v21.90" class="stroke"/>
<use x="449.87" y="339.23" xlink:href="#hd"/>
<use x="461.37" y="327.23" xlink:href="#hd"/>
<path d="M457.87 327.23v27.90" class="stroke"/>
<use x="472.87" y="333.23" xlink:href="#hd"/>
<path d="M469.37 333.23v21.90" class="stroke"/>
<use x="472.87" y="339.23" xlink:href="#hd"/>
<use x="484.27" y="327.23" xlink:href="#hd"/>
<path d="M480.77 327.23v27.90" class="stroke"/>
<use x="495.77" y="333.23" xlink:href="#hd"/>
<path d="M492.27 333.23v21.90" class="stroke"/>
<use x="495.77" y="339.23" xlink:href="#hd"/>
<use x="507.27" y="327.23" xlink:href="#hd"/>
<path d="M503.77 327.23v27.90" class="stroke"/>
<path class="fill"
	d="M528.37 356.13l58.00 0.00v-3.20l-58.00 -0.00"/>
<path class="fill"
	d="M528.77 351.13l57.40 0.00v-3.20l-57.40 -0.00"/>
<use x="532.27" y="333.23" xlink:href="#hd"/>
<path d="M528.77 333.23v21.90" class="stroke"/>
<use x="532.27" y="339.23" xlink:href="#hd"/>
<use x="543.67" y="327.23" xlink:href="#hd"/>
<path d="M540.17 327.23v27.90" class="stroke"/>
<use x="555.17" y="333.23" xlink:href="#hd"/>
<path d="M551.67 333.23v21.90" class="stroke"/>
<use x="555.17" y="339.23" xlink:href="#hd"/>
<use x="566.67" y="327.23" xlink:href="#hd"/>
<path d="M563.17 327.23v27.90" class="stroke"/>
<use x="578.17" y="333.23" xlink:href="#hd"/>
<path d="M574.67 333.23v21.90" class="stroke"/>
<use x="578.17" y="339.23" xlink:href="#hd"/>
<use x="589.57" y="327.23" xlink:href="#hd"/>
<path d="M586.07 327.23v27.90" class="stroke"/>
<use x="614.57" y="330.23" xlink:href="#hd"/>
<path d="M611.07 330.23v21.00" class="stroke"/>
<use x="656.27" y="327.23" xlink:href="#hd"/>
<path d="M652.77 327.23v21.00" class="stroke"/>
<path class="fill"
	d="M652.77 348.23c0.6 -5.6 9.6 -9 5.6 -18.4
	1.6 6 -1.3 11.6 -5.6 12.8
"/>
<use x="692.77" y="339.23" xlink:href="#hd"/>
<path d="M696.27 339.23v-21.00" class="stroke"/>
<use x="722.37" y="354.23" xlink:href="#hl"/>
<use x="722.37" y="360.23" xlink:href="#hl"/>
<use x="722.37" y="360.23" xlink:href="#hd"/>
<path d="M725.87 360.23v-24.00" class="stroke"/>
<path class="fill"
	d="M725.87 336.23c0.6 5.6 9.6 9 5.6 18.4
	1.6 -6 -1.3 -11.6 -5.6 -12.8
"/>
<defs>
<text id="trl" font-family="serif" font-size="16" font-style="italic"
	x="-2" y="-4">tr</text>
</defs>
<use x="254.07" y="264.23" xlink:href="#trl"/>
</g>
</svg>
