<?xml version="1.0" standalone="no"?>
<!DOCTYPE svg PUBLIC "-//W3C//DTD SVG 1.1//EN"
	"http://www.w3.org/Graphics/SVG/1.1/DTD/svg11.dtd">
<svg xmlns="http://www.w3.org/2000/svg" version="1.1"
	xmlns:xlink="http://www.w3.org/1999/xlink"
	color="black"
	width="907.20px" height="1056.00px">
<style type="text/css">
.fill {fill: currentColor}
.stroke {stroke: currentColor; fill: none}
text{white-space: pre}
</style>
<title>./K516f-7-7-7-7-7-7-7-7-7-7-7-7-7-7-7-7.abc page 1</title>
<!-- Creator: abcm2ps-8.13.8 -->
<!-- CreationDate: Aug 14, 2017 10:23 -->
<!-- CommandLine: -v -q -O= ./K516f-7-7-7-7-7-7-7-7-7-7-7-7-7-7-7-7.abc -->
<rect width="100%" height="100%" fill="white"/>
<g stroke-width="0.70" transform="scale(1.173)">
<!-- title: 7-7-7-7-7-7-7-7-7-7-7-7-7-7-7-7 -->
</g>
<g stroke-width="0.70" transform="scale(1.173)" font-family="serif" font-size="20.00">
<text x="386.57" y="54.23" text-anchor="middle">7-7-7-7-7-7-7-7-7-7-7-7-7-7-7-7</text>
</g>
<g stroke-width="0.70" transform="scale(1.173)" font-family="serif" font-size="20.00">
<!-- subtitle: $1K.516f::104:157:27:167:154:68:118:91:138:71:150:29:101:162:23:151::$0 -->
</g>
<g stroke-width="0.70" transform="scale(1.173)" font-family="Courier" font-size="12.00" font-weight="bold">
<text x="386.57" y="74.03" text-anchor="middle">K.516f::104:157:27:167:154:68:118:91:138:71:150:29:101:162:23:151::</text>
</g>
<g stroke-width="0.70" transform="scale(1.173)" font-family="Courier" font-size="12.00" font-weight="bold">
<!-- subtitle: $1Perm. No.: 189874916791621$0 -->
<text x="386.57" y="93.03" text-anchor="middle">Perm. No.: 189874916791621</text>
</g>
<g stroke-width="0.70" transform="scale(0.821)" font-family="Courier" font-size="12.00" font-weight="bold">
<defs>
<ellipse id="hd" rx="4.1" ry="2.9"
	transform="rotate(-20)" class="fill"/>
</defs>
<use x="123.39" y="167.32" xlink:href="#hd"/>
<path d="M126.89 167.32v-21.00" class="stroke"/>
<path class="fill"
	d="M126.89 146.32c0.6 5.6 9.6 9 5.6 18.4
	1.6 -6 -1.3 -11.6 -5.6 -12.8
"/>
</g>
<g stroke-width="0.70" transform="scale(1.173)" font-family="serif" font-size="15.00" font-weight="bold">
<text x="95.47" y="119.23">= 111</text>
<path class="stroke" stroke-width="1"
	d="M25.77 215.23v-82.00"/>
<path class="fill"
	d="M20.77 130.23
	c10.5 1 12 -4.5 12 -3.5c0 1 -3.5 5.5 -8.5 5.5
	v84.00
	c5 0 8.5 4.5 8.5 5.5c0 1 -1.5 -4.5 -12 -3.5"/>
<defs>
<g id="rdots" class="fill">
	<circle cx="0" cy="-9" r="1.2"/>
	<circle cx="0" cy="-15" r="1.2"/>
</g>
</defs>
<use x="84.77" y="157.23" xlink:href="#rdots"/>
<path class="stroke" stroke-width="1"
	d="M80.77 157.23v-24.00"/>
<path class="stroke" stroke-width="3"
	d="M76.27 157.23v-24.00"/>
<use x="84.77" y="215.23" xlink:href="#rdots"/>
<path class="stroke" stroke-width="1"
	d="M80.77 215.23v-58.00"/>
<path class="stroke" stroke-width="3"
	d="M76.27 215.23v-58.00"/>
<path class="stroke" stroke-width="1"
	d="M169.87 157.23v-24.00"/>
<path class="stroke" stroke-width="1"
	d="M169.87 215.23v-58.00"/>
<path class="stroke" stroke-width="1"
	d="M253.97 157.23v-24.00"/>
<path class="stroke" stroke-width="1"
	d="M253.97 215.23v-58.00"/>
<path class="stroke" stroke-width="1"
	d="M338.07 157.23v-24.00"/>
<path class="stroke" stroke-width="1"
	d="M338.07 215.23v-58.00"/>
<path class="stroke" stroke-width="1"
	d="M403.57 157.23v-24.00"/>
<path class="stroke" stroke-width="1"
	d="M403.57 215.23v-58.00"/>
<path class="stroke" stroke-width="1"
	d="M499.97 157.23v-24.00"/>
<path class="stroke" stroke-width="1"
	d="M499.97 215.23v-58.00"/>
<path class="stroke" stroke-width="1"
	d="M575.87 157.23v-24.00"/>
<path class="stroke" stroke-width="1"
	d="M575.87 215.23v-58.00"/>
<path class="stroke" stroke-width="1"
	d="M666.07 157.23v-24.00"/>
<path class="stroke" stroke-width="1"
	d="M666.07 215.23v-58.00"/>
<path class="stroke" stroke-width="3"
	d="M745.87 157.23v-24.00"/>
<path class="stroke" stroke-width="1"
	d="M741.37 157.23v-24.00"/>
<use x="737.37" y="157.23" xlink:href="#rdots"/>
<path class="stroke" stroke-width="3"
	d="M745.87 215.23v-58.00"/>
<path class="stroke" stroke-width="1"
	d="M741.37 215.23v-58.00"/>
<use x="737.37" y="215.23" xlink:href="#rdots"/>
<path d="m25.77 157.23
	h721.60
	M25.77 151.23
	h721.60
	M25.77 145.23
	h721.60
	M25.77 139.23
	h721.60
	M25.77 133.23
	h721.60
	" class="stroke"/>
<path d="m25.77 215.23
	h721.60
	M25.77 209.23
	h721.60
	M25.77 203.23
	h721.60
	M25.77 197.23
	h721.60
	M25.77 191.23
	h721.60
	" class="stroke"/>
</g>
<g stroke-width="0.70" transform="scale(1.173)" font-family="serif" font-size="13.00">
<text x="670.07" y="118.63">1</text>
<path class="stroke"
	d="M666.07 107.23m0 20v-20h73.30v20"/>
<defs>
<path id="utclef" class="fill" d="m-50 -90
	c-72 -41 -72 -158 52 -188
	150 -10 220 188 90 256
	-114 52 -275 0 -293 -136
	-15 -181 93 -229 220 -334
	88 -87 79 -133 62 -210
	-51 33 -94 105 -89 186
	17 267 36 374 49 574
	6 96 -19 134 -77 135
	-80 1 -126 -93 -61 -133
	85 -41 133 101 31 105
	23 17 92 37 90 -92
	-10 -223 -39 -342 -50 -617
	0 -90 0 -162 96 -232
	56 72 63 230 22 289
	-74 106 -257 168 -255 316
	9 153 148 185 252 133
	86 -65 29 -192 -80 -176
	-71 12 -105 67 -59 124"/>
<use id="tclef" transform="translate(0,6) scale(0.045)"
	xlink:href="#utclef"/>
</defs>
<use x="37.77" y="151.23" xlink:href="#tclef"/>
<g font-family="serif" font-size="16" font-weight="bold" font-style="normal"
	transform="translate(56.27,156.73) scale(1.2,1)">
	<text text-anchor="middle">8</text>
	<text y="-12" text-anchor="middle">3</text>
</g>
<path class="fill"
	d="M94.47 159.23l59.80 0.00v-3.20l-59.80 -0.00"/>
<path class="fill"
	d="M94.77 154.23l59.10 0.00v-3.20l-59.10 -0.00"/>
<use x="98.27" y="136.23" xlink:href="#hd"/>
<path d="M94.77 136.23v22.00" class="stroke"/>
<use x="110.07" y="139.23" xlink:href="#hd"/>
<path d="M106.57 139.23v19.00" class="stroke"/>
<use x="121.87" y="136.23" xlink:href="#hd"/>
<path d="M118.37 136.23v22.00" class="stroke"/>
<use x="133.77" y="130.23" xlink:href="#hd"/>
<path d="M130.27 130.23v28.00" class="stroke"/>
<defs>
<path id="hl" class="stroke" d="m-6 0h12"/>
</defs>
<use x="145.57" y="127.23" xlink:href="#hl"/>
<use x="145.57" y="121.23" xlink:href="#hl"/>
<use x="145.57" y="121.23" xlink:href="#hd"/>
<path d="M142.07 121.23v37.00" class="stroke"/>
<use x="157.37" y="130.23" xlink:href="#hd"/>
<path d="M153.87 130.23v28.00" class="stroke"/>
<path class="fill"
	d="M178.57 159.23l59.80 0.00v-3.20l-59.80 -0.00"/>
<path class="fill"
	d="M178.87 154.23l59.10 0.00v-3.20l-59.10 -0.00"/>
<use x="182.37" y="136.23" xlink:href="#hd"/>
<path d="M178.87 136.23v22.00" class="stroke"/>
<use x="194.17" y="139.23" xlink:href="#hd"/>
<path d="M190.67 139.23v19.00" class="stroke"/>
<use x="206.07" y="136.23" xlink:href="#hd"/>
<path d="M202.57 136.23v22.00" class="stroke"/>
<use x="217.87" y="130.23" xlink:href="#hd"/>
<path d="M214.37 130.23v28.00" class="stroke"/>
<use x="229.67" y="127.23" xlink:href="#hl"/>
<use x="229.67" y="121.23" xlink:href="#hl"/>
<use x="229.67" y="121.23" xlink:href="#hd"/>
<path d="M226.17 121.23v37.00" class="stroke"/>
<use x="241.47" y="130.23" xlink:href="#hd"/>
<path d="M237.97 130.23v28.00" class="stroke"/>
<path class="fill"
	d="M262.67 165.23l59.80 0.00v-3.20l-59.80 -0.00"/>
<path class="fill"
	d="M262.97 160.23l59.10 0.00v-3.20l-59.10 -0.00"/>
<use x="266.47" y="133.23" xlink:href="#hd"/>
<path d="M262.97 133.23v30.90" class="stroke"/>
<use x="278.27" y="136.23" xlink:href="#hd"/>
<path d="M274.77 136.23v27.90" class="stroke"/>
<use x="290.17" y="133.23" xlink:href="#hd"/>
<path d="M286.67 133.23v30.90" class="stroke"/>
<use x="301.97" y="139.23" xlink:href="#hd"/>
<path d="M298.47 139.23v24.90" class="stroke"/>
<use x="313.77" y="142.23" xlink:href="#hd"/>
<path d="M310.27 142.23v21.90" class="stroke"/>
<use x="325.57" y="145.23" xlink:href="#hd"/>
<path d="M322.07 145.23v18.90" class="stroke"/>
<path class="fill"
	d="M346.77 165.23l39.70 0.00v-3.20l-39.70 -0.00"/>
<path class="fill"
	d="M362.47 160.23l11.80 0.00v-3.20l-11.80 -0.00"/>
<use x="350.57" y="142.23" xlink:href="#hd"/>
<path d="M347.07 142.23v21.90" class="stroke"/>
<use x="365.97" y="142.23" xlink:href="#hd"/>
<path d="M362.47 142.23v21.90" class="stroke"/>
<use x="377.77" y="139.23" xlink:href="#hd"/>
<path d="M374.27 139.23v24.90" class="stroke"/>
<use x="389.57" y="136.23" xlink:href="#hd"/>
<path d="M386.07 136.23v27.90" class="stroke"/>
<path class="fill"
	d="M412.17 165.23l72.10 0.00v-3.20l-72.10 -0.00"/>
<path class="fill"
	d="M412.57 160.23l71.50 0.00v-3.20l-71.50 -0.00"/>
<use x="416.07" y="139.23" xlink:href="#hd"/>
<path d="M412.57 139.23v24.90" class="stroke"/>
<use x="434.07" y="142.23" xlink:href="#hd"/>
<defs>
<path id="usharp" class="fill" d="
	m136 -702
	v890
	h32
	v-890
	m128 840
	h32
	v-888
	h-32
	m-232 286
	v116
	l338 -96
	v-116
	m-338 442
	v116
	l338 -98
	v-114"/>
<use id="sh0" transform="translate(-4,5) scale(0.018)"
	xlink:href="#usharp"/>
</defs>
<use x="425.07" y="142.23" xlink:href="#sh0"/>
<path d="M430.57 142.23v21.90" class="stroke"/>
<use x="445.87" y="139.23" xlink:href="#hd"/>
<path d="M442.37 139.23v24.90" class="stroke"/>
<use x="463.87" y="133.23" xlink:href="#hd"/>
<use x="454.87" y="133.23" xlink:href="#sh0"/>
<path d="M460.37 133.23v30.90" class="stroke"/>
<use x="475.67" y="127.23" xlink:href="#hl"/>
<use x="475.67" y="127.23" xlink:href="#hd"/>
<path d="M472.17 127.23v36.90" class="stroke"/>
<use x="487.47" y="133.23" xlink:href="#hd"/>
<path d="M483.97 133.23v30.90" class="stroke"/>
<path class="fill"
	d="M508.67 159.23l51.50 0.00v-3.20l-51.50 -0.00"/>
<path class="fill"
	d="M524.37 154.23l35.50 0.00v-3.20l-35.50 -0.00"/>
<use x="512.47" y="130.23" xlink:href="#hd"/>
<path d="M508.97 130.23v28.00" class="stroke"/>
<use x="527.87" y="127.23" xlink:href="#hl"/>
<use x="527.87" y="124.23" xlink:href="#hd"/>
<path d="M524.37 124.23v34.00" class="stroke"/>
<use x="539.67" y="130.23" xlink:href="#hd"/>
<path d="M536.17 130.23v28.00" class="stroke"/>
<use x="551.47" y="139.23" xlink:href="#hd"/>
<path d="M547.97 139.23v19.00" class="stroke"/>
<use x="563.37" y="130.23" xlink:href="#hd"/>
<path d="M559.87 130.23v28.00" class="stroke"/>
<path class="fill"
	d="M584.47 159.23l66.00 0.00v-3.20l-66.00 -0.00"/>
<path class="fill"
	d="M584.87 154.23l65.30 0.00v-3.20l-65.30 -0.00"/>
<use x="588.37" y="136.23" xlink:href="#hd"/>
<path d="M584.87 136.23v22.00" class="stroke"/>
<use x="600.17" y="127.23" xlink:href="#hl"/>
<use x="600.17" y="127.23" xlink:href="#hd"/>
<path d="M596.67 127.23v31.00" class="stroke"/>
<use x="611.97" y="130.23" xlink:href="#hd"/>
<path d="M608.47 130.23v28.00" class="stroke"/>
<use x="623.77" y="127.23" xlink:href="#hl"/>
<use x="623.77" y="124.23" xlink:href="#hd"/>
<path d="M620.27 124.23v34.00" class="stroke"/>
<use x="641.77" y="133.23" xlink:href="#hd"/>
<use x="632.77" y="133.23" xlink:href="#sh0"/>
<path d="M638.27 133.23v25.00" class="stroke"/>
<use x="653.57" y="127.23" xlink:href="#hl"/>
<use x="653.57" y="127.23" xlink:href="#hd"/>
<path d="M650.07 127.23v31.00" class="stroke"/>
<use x="678.57" y="130.23" xlink:href="#hd"/>
<path d="M675.07 130.23v40.00" class="stroke"/>
<use x="678.57" y="151.23" xlink:href="#hd"/>
<use x="678.57" y="145.23" xlink:href="#hd"/>
<use x="678.57" y="139.23" xlink:href="#hd"/>
<defs>
<path id="r8e" class="fill" d="m 0 0
	c-1.5 1.5 -2.4 2 -3.6 2
	2.4 -2.8 -2.8 -4 -2.8 -1.2
	c0 2.7 4.3 2.4 5.9 0.6"/>
<g id="r8">
	<path d="m3.3 -4l-3.4 9.6" class="stroke"/>
	<use x="3.4" y="-4" xlink:href="#r8e"/>
</g>
</defs>
<use x="723.77" y="145.23" xlink:href="#r8"/>
<defs>
<path id="ubclef" class="fill" d="m-200 -87
	c124 -35 222 -78 254 -236
	43 -228 -167 -246 -192 -103
	59 -80 157 22 92 78
	-62 47 -115 -22 -106 -88
	21 -141 270 -136 274 52
	-1 175 -106 264 -322 297
	m357 -250
	c0 -36 51 -34 51 0
	0 37 -51 36 -51 0
	m-2 -129
	c0 -36 51 -34 51 0
	0 38 -51 37 -51 0"/>
<use id="bclef" transform="translate(0,18) scale(0.045)"
	xlink:href="#ubclef"/>
</defs>
<use x="37.77" y="197.23" xlink:href="#bclef"/>
<g font-family="serif" font-size="16" font-weight="bold" font-style="normal"
	transform="translate(56.27,214.73) scale(1.2,1)">
	<text text-anchor="middle">8</text>
	<text y="-12" text-anchor="middle">3</text>
</g>
<use x="98.27" y="206.23" xlink:href="#hd"/>
<path d="M101.77 206.23v-21.00" class="stroke"/>
<use x="145.57" y="203.23" xlink:href="#r8"/>
<use x="182.37" y="206.23" xlink:href="#hd"/>
<path d="M185.87 206.23v-21.00" class="stroke"/>
<use x="229.67" y="203.23" xlink:href="#r8"/>
<use x="266.47" y="188.23" xlink:href="#hd"/>
<path d="M262.97 188.23v25.00" class="stroke"/>
<use x="266.47" y="194.23" xlink:href="#hd"/>
<use x="313.77" y="203.23" xlink:href="#r8"/>
<use x="350.57" y="200.23" xlink:href="#hd"/>
<path d="M347.07 200.23v25.00" class="stroke"/>
<use x="350.57" y="206.23" xlink:href="#hd"/>
<use x="389.57" y="203.23" xlink:href="#r8"/>
<use x="416.07" y="206.23" xlink:href="#hd"/>
<path d="M419.57 206.23v-21.00" class="stroke"/>
<use x="475.67" y="203.23" xlink:href="#r8"/>
<use x="512.47" y="209.23" xlink:href="#hd"/>
<path d="M515.97 209.23v-21.00" class="stroke"/>
<use x="551.47" y="203.23" xlink:href="#r8"/>
<path class="fill"
	d="M591.47 180.43l54.10 8.00v3.20l-54.10 -8.00"/>
<use x="588.37" y="206.23" xlink:href="#hd"/>
<path d="M591.87 206.23v-24.70" class="stroke"/>
<use x="611.97" y="203.23" xlink:href="#hd"/>
<path d="M615.47 203.23v-18.20" class="stroke"/>
<use x="641.77" y="221.23" xlink:href="#hl"/>
<use x="641.77" y="224.23" xlink:href="#hd"/>
<path d="M645.27 224.23v-34.80" class="stroke"/>
<path class="fill"
	d="M674.77 234.43l57.70 0.00v-3.20l-57.70 -0.00"/>
<path class="fill"
	d="M690.47 229.43l41.60 0.00v-3.20l-41.60 -0.00"/>
<use x="678.57" y="215.23" xlink:href="#hd"/>
<path d="M675.07 215.23v18.20" class="stroke"/>
<use x="693.97" y="194.23" xlink:href="#hd"/>
<path d="M690.47 194.23v39.20" class="stroke"/>
<use x="711.97" y="197.23" xlink:href="#hd"/>
<defs>
<path id="unat" class="fill" d="
	m96 -750
	h-32
	v716
	l32 -8
	182 -54
	v282
	h32
	v-706
	l-34 10
	-180 50
	v-290
	m0 592
	v-190
	l182 -52
	v188"/>
<use id="nt0" transform="translate(-3,5) scale(0.018)"
	xlink:href="#unat"/>
</defs>
<use x="702.97" y="197.23" xlink:href="#nt0"/>
<path d="M708.47 197.23v36.20" class="stroke"/>
<use x="723.77" y="200.23" xlink:href="#hd"/>
<path d="M720.27 200.23v33.20" class="stroke"/>
<use x="735.57" y="203.23" xlink:href="#hd"/>
<path d="M732.07 203.23v30.20" class="stroke"/>
</g>
<g stroke-width="0.70" transform="scale(1.173)" font-family="serif" font-size="13.00">
<path class="stroke" stroke-width="1"
	d="M25.77 351.23v-85.00"/>
<path class="fill"
	d="M20.77 263.23
	c10.5 1 12 -4.5 12 -3.5c0 1 -3.5 5.5 -8.5 5.5
	v87.00
	c5 0 8.5 4.5 8.5 5.5c0 1 -1.5 -4.5 -12 -3.5"/>
<use x="139.77" y="290.23" xlink:href="#rdots"/>
<path class="stroke" stroke-width="1"
	d="M135.77 290.23v-24.00"/>
<path class="stroke" stroke-width="3"
	d="M131.27 290.23v-24.00"/>
<use x="139.77" y="351.23" xlink:href="#rdots"/>
<path class="stroke" stroke-width="1"
	d="M135.77 351.23v-61.00"/>
<path class="stroke" stroke-width="3"
	d="M131.27 351.23v-61.00"/>
<path class="stroke" stroke-width="1"
	d="M238.17 290.23v-24.00"/>
<path class="stroke" stroke-width="1"
	d="M238.17 351.23v-61.00"/>
<path class="stroke" stroke-width="1"
	d="M310.17 290.23v-24.00"/>
<path class="stroke" stroke-width="1"
	d="M310.17 351.23v-61.00"/>
<path class="stroke" stroke-width="1"
	d="M394.07 290.23v-24.00"/>
<path class="stroke" stroke-width="1"
	d="M394.07 351.23v-61.00"/>
<path class="stroke" stroke-width="1"
	d="M464.07 290.23v-24.00"/>
<path class="stroke" stroke-width="1"
	d="M464.07 351.23v-61.00"/>
<path class="stroke" stroke-width="1"
	d="M539.67 290.23v-24.00"/>
<path class="stroke" stroke-width="1"
	d="M539.67 351.23v-61.00"/>
<path class="stroke" stroke-width="1"
	d="M615.27 290.23v-24.00"/>
<path class="stroke" stroke-width="1"
	d="M615.27 351.23v-61.00"/>
<path class="stroke" stroke-width="1"
	d="M690.77 290.23v-24.00"/>
<path class="stroke" stroke-width="1"
	d="M690.77 351.23v-61.00"/>
<path class="stroke" stroke-width="3"
	d="M745.87 290.23v-24.00"/>
<path class="stroke" stroke-width="1"
	d="M741.37 290.23v-24.00"/>
<use x="737.37" y="290.23" xlink:href="#rdots"/>
<path class="stroke" stroke-width="3"
	d="M745.87 351.23v-61.00"/>
<path class="stroke" stroke-width="1"
	d="M741.37 351.23v-61.00"/>
<use x="737.37" y="351.23" xlink:href="#rdots"/>
<path d="m25.77 290.23
	h721.60
	M25.77 284.23
	h721.60
	M25.77 278.23
	h721.60
	M25.77 272.23
	h721.60
	M25.77 266.23
	h721.60
	" class="stroke"/>
<path d="m25.77 351.23
	h721.60
	M25.77 345.23
	h721.60
	M25.77 339.23
	h721.60
	M25.77 333.23
	h721.60
	M25.77 327.23
	h721.60
	" class="stroke"/>
<text x="61.77" y="251.63">2</text>
<path class="stroke"
	d="M57.77 240.23m0 20v-20h71.00v20"/>
<use x="37.77" y="284.23" xlink:href="#tclef"/>
<use x="70.27" y="263.23" xlink:href="#hd"/>
<path d="M66.77 263.23v40.00" class="stroke"/>
<use x="70.27" y="284.23" xlink:href="#hd"/>
<use x="70.27" y="278.23" xlink:href="#hd"/>
<use x="70.27" y="272.23" xlink:href="#hd"/>
<use x="110.17" y="278.23" xlink:href="#r8"/>
<use x="159.27" y="266.23" xlink:href="#hd"/>
<use x="150.27" y="266.23" xlink:href="#sh0"/>
<path d="M155.77 266.23v34.00" class="stroke"/>
<path class="fill"
	d="M155.77 300.23c0.6 -5.6 9.6 -9 5.6 -18.4
	1.6 6 -1.3 11.6 -5.6 12.8
"/>
<use x="159.27" y="281.23" xlink:href="#hd"/>
<use x="159.27" y="272.23" xlink:href="#hd"/>
<use x="187.47" y="266.23" xlink:href="#hd"/>
<path d="M183.97 266.23v21.00" class="stroke"/>
<path class="fill"
	d="M246.77 286.23l43.20 0.00v-3.20l-43.20 -0.00"/>
<path class="fill"
	d="M247.17 281.23l32.40 0.00v-3.20l-32.40 -0.00"/>
<use x="250.67" y="263.23" xlink:href="#hd"/>
<path d="M247.17 263.23v21.90" class="stroke"/>
<use x="260.77" y="260.23" xlink:href="#hl"/>
<use x="260.77" y="257.23" xlink:href="#hd"/>
<path d="M257.27 257.23v27.90" class="stroke"/>
<use x="271.87" y="260.23" xlink:href="#hl"/>
<use x="271.87" y="254.23" xlink:href="#hl"/>
<use x="271.87" y="251.23" xlink:href="#hd"/>
<path d="M268.37 251.23v33.90" class="stroke"/>
<use x="283.07" y="260.23" xlink:href="#hl"/>
<use x="283.07" y="257.23" xlink:href="#hd"/>
<path d="M279.57 257.23v27.90" class="stroke"/>
<use x="293.17" y="263.23" xlink:href="#hd"/>
<path d="M289.67 263.23v21.90" class="stroke"/>
<use x="322.67" y="269.23" xlink:href="#hd"/>
<path d="M319.17 269.23v34.00" class="stroke"/>
<path class="fill"
	d="M319.17 303.23c0.6 -5.6 9.6 -9 5.6 -18.4
	1.6 6 -1.3 11.6 -5.6 12.8
"/>
<use x="322.67" y="284.23" xlink:href="#hd"/>
<use x="322.67" y="275.23" xlink:href="#hd"/>
<use x="343.37" y="269.23" xlink:href="#hd"/>
<path d="M339.87 269.23v21.00" class="stroke"/>
<path class="fill"
	d="M402.77 298.23l41.20 0.00v-3.20l-41.20 -0.00"/>
<path class="fill"
	d="M403.07 293.23l30.40 0.00v-3.20l-30.40 -0.00"/>
<use x="406.57" y="278.23" xlink:href="#hd"/>
<path d="M403.07 278.23v18.90" class="stroke"/>
<use x="416.67" y="272.23" xlink:href="#hd"/>
<path d="M413.17 272.23v24.90" class="stroke"/>
<use x="426.77" y="263.23" xlink:href="#hd"/>
<path d="M423.27 263.23v33.90" class="stroke"/>
<use x="436.97" y="272.23" xlink:href="#hd"/>
<path d="M433.47 272.23v24.90" class="stroke"/>
<use x="447.07" y="278.23" xlink:href="#hd"/>
<path d="M443.57 278.23v18.90" class="stroke"/>
<path class="fill"
	d="M472.67 292.23l51.30 0.00v-3.20l-51.30 -0.00"/>
<path class="fill"
	d="M473.07 287.23l50.60 0.00v-3.20l-50.60 -0.00"/>
<use x="476.57" y="269.23" xlink:href="#hd"/>
<path d="M473.07 269.23v22.00" class="stroke"/>
<use x="486.67" y="272.23" xlink:href="#hd"/>
<path d="M483.17 272.23v19.00" class="stroke"/>
<use x="496.77" y="269.23" xlink:href="#hd"/>
<path d="M493.27 269.23v22.00" class="stroke"/>
<use x="506.87" y="263.23" xlink:href="#hd"/>
<path d="M503.37 263.23v28.00" class="stroke"/>
<use x="516.97" y="260.23" xlink:href="#hl"/>
<use x="516.97" y="254.23" xlink:href="#hl"/>
<use x="516.97" y="254.23" xlink:href="#hd"/>
<path d="M513.47 254.23v37.00" class="stroke"/>
<use x="527.17" y="263.23" xlink:href="#hd"/>
<path d="M523.67 263.23v28.00" class="stroke"/>
<path class="fill"
	d="M548.27 292.23l51.30 0.00v-3.20l-51.30 -0.00"/>
<path class="fill"
	d="M548.67 287.23l50.60 0.00v-3.20l-50.60 -0.00"/>
<use x="552.17" y="269.23" xlink:href="#hd"/>
<path d="M548.67 269.23v22.00" class="stroke"/>
<use x="562.27" y="272.23" xlink:href="#hd"/>
<path d="M558.77 272.23v19.00" class="stroke"/>
<use x="572.37" y="269.23" xlink:href="#hd"/>
<path d="M568.87 269.23v22.00" class="stroke"/>
<use x="582.47" y="263.23" xlink:href="#hd"/>
<path d="M578.97 263.23v28.00" class="stroke"/>
<use x="592.57" y="260.23" xlink:href="#hl"/>
<use x="592.57" y="254.23" xlink:href="#hl"/>
<use x="592.57" y="254.23" xlink:href="#hd"/>
<path d="M589.07 254.23v37.00" class="stroke"/>
<use x="602.77" y="263.23" xlink:href="#hd"/>
<path d="M599.27 263.23v28.00" class="stroke"/>
<path class="fill"
	d="M623.87 292.23l51.30 0.00v-3.20l-51.30 -0.00"/>
<path class="fill"
	d="M624.27 287.23l50.60 0.00v-3.20l-50.60 -0.00"/>
<use x="627.77" y="266.23" xlink:href="#hd"/>
<path d="M624.27 266.23v25.00" class="stroke"/>
<use x="637.87" y="269.23" xlink:href="#hd"/>
<path d="M634.37 269.23v22.00" class="stroke"/>
<use x="647.97" y="272.23" xlink:href="#hd"/>
<path d="M644.47 272.23v19.00" class="stroke"/>
<use x="658.07" y="269.23" xlink:href="#hd"/>
<path d="M654.57 269.23v22.00" class="stroke"/>
<use x="668.17" y="266.23" xlink:href="#hd"/>
<path d="M664.67 266.23v25.00" class="stroke"/>
<use x="678.27" y="263.23" xlink:href="#hd"/>
<path d="M674.77 263.23v28.00" class="stroke"/>
<use x="703.27" y="275.23" xlink:href="#hd"/>
<path d="M699.77 275.23v21.00" class="stroke"/>
<use x="726.87" y="278.23" xlink:href="#r8"/>
<use x="37.77" y="333.23" xlink:href="#bclef"/>
<path class="fill"
	d="M66.47 370.43l50.70 0.00v-3.20l-50.70 -0.00"/>
<path class="fill"
	d="M78.57 365.43l38.20 0.00v-3.20l-38.20 -0.00"/>
<use x="70.27" y="351.23" xlink:href="#hd"/>
<path d="M66.77 351.23v18.20" class="stroke"/>
<use x="82.07" y="324.23" xlink:href="#hd"/>
<path d="M78.57 324.23v45.20" class="stroke"/>
<use x="92.17" y="330.23" xlink:href="#hd"/>
<path d="M88.67 330.23v39.20" class="stroke"/>
<use x="110.17" y="333.23" xlink:href="#hd"/>
<use x="101.17" y="333.23" xlink:href="#sh0"/>
<path d="M106.67 333.23v36.20" class="stroke"/>
<use x="120.27" y="336.23" xlink:href="#hd"/>
<path d="M116.77 336.23v33.20" class="stroke"/>
<path class="fill"
	d="M162.47 318.03l67.00 -6.30v3.20l-67.00 6.30"/>
<path class="fill"
	d="M162.77 323.03l66.40 -6.30v3.20l-66.40 6.30"/>
<use x="159.27" y="357.23" xlink:href="#hl"/>
<use x="159.27" y="360.23" xlink:href="#hd"/>
<path d="M162.77 360.23v-41.20" class="stroke"/>
<use x="169.47" y="339.23" xlink:href="#hd"/>
<path d="M172.97 339.23v-21.20" class="stroke"/>
<use x="187.47" y="342.23" xlink:href="#hd"/>
<use x="178.47" y="342.23" xlink:href="#sh0"/>
<path d="M190.97 342.23v-25.90" class="stroke"/>
<use x="197.57" y="339.23" xlink:href="#hd"/>
<path d="M201.07 339.23v-23.90" class="stroke"/>
<use x="215.57" y="342.23" xlink:href="#hd"/>
<use x="206.57" y="342.23" xlink:href="#sh0"/>
<path d="M219.07 342.23v-28.60" class="stroke"/>
<use x="225.67" y="339.23" xlink:href="#hd"/>
<path d="M229.17 339.23v-26.50" class="stroke"/>
<use x="250.67" y="345.23" xlink:href="#hd"/>
<path d="M254.17 345.23v-25.00" class="stroke"/>
<use x="250.67" y="339.23" xlink:href="#hd"/>
<use x="293.17" y="345.23" xlink:href="#hd"/>
<path d="M296.67 345.23v-25.00" class="stroke"/>
<path class="fill"
	d="M296.67 320.23c0.6 5.6 9.6 9 5.6 18.4
	1.6 -6 -1.3 -11.6 -5.6 -12.8
"/>
<use x="293.17" y="339.23" xlink:href="#hd"/>
<path class="fill"
	d="M325.77 311.03l59.60 0.00v3.20l-59.60 -0.00"/>
<path class="fill"
	d="M326.17 316.03l58.90 0.00v3.20l-58.90 -0.00"/>
<use x="322.67" y="342.23" xlink:href="#hd"/>
<path d="M326.17 342.23v-30.20" class="stroke"/>
<use x="332.77" y="345.23" xlink:href="#hd"/>
<path d="M336.27 345.23v-33.20" class="stroke"/>
<use x="343.37" y="342.23" xlink:href="#hd"/>
<path d="M346.87 342.23v-30.20" class="stroke"/>
<use x="353.47" y="339.23" xlink:href="#hd"/>
<path d="M356.97 339.23v-27.20" class="stroke"/>
<use x="363.57" y="336.23" xlink:href="#hd"/>
<path d="M367.07 336.23v-24.20" class="stroke"/>
<use x="381.57" y="333.23" xlink:href="#hd"/>
<use x="372.57" y="333.23" xlink:href="#sh0"/>
<path d="M385.07 333.23v-21.20" class="stroke"/>
<use x="406.57" y="330.23" xlink:href="#hd"/>
<path d="M403.07 330.23v21.00" class="stroke"/>
<use x="447.07" y="351.23" xlink:href="#hd"/>
<path d="M450.57 351.23v-21.00" class="stroke"/>
<path class="fill"
	d="M450.57 330.23c0.6 5.6 9.6 9 5.6 18.4
	1.6 -6 -1.3 -11.6 -5.6 -12.8
"/>
<use x="476.57" y="330.23" xlink:href="#hd"/>
<path d="M480.07 330.23v-21.00" class="stroke"/>
<use x="516.97" y="336.23" xlink:href="#hd"/>
<path d="M520.47 336.23v-21.00" class="stroke"/>
<path class="fill"
	d="M520.47 315.23c0.6 5.6 9.6 9 5.6 18.4
	1.6 -6 -1.3 -11.6 -5.6 -12.8
"/>
<use x="552.17" y="330.23" xlink:href="#hd"/>
<path d="M548.67 330.23v31.00" class="stroke"/>
<use x="552.17" y="342.23" xlink:href="#hd"/>
<use x="592.57" y="336.23" xlink:href="#hd"/>
<path d="M589.07 336.23v25.00" class="stroke"/>
<path class="fill"
	d="M589.07 361.23c0.6 -5.6 9.6 -9 5.6 -18.4
	1.6 6 -1.3 11.6 -5.6 12.8
"/>
<use x="592.57" y="342.23" xlink:href="#hd"/>
<path class="fill"
	d="M623.87 353.13l51.30 0.00v-3.20l-51.30 -0.00"/>
<path class="fill"
	d="M624.27 348.13l50.60 0.00v-3.20l-50.60 -0.00"/>
<use x="627.77" y="327.23" xlink:href="#hd"/>
<path d="M624.27 327.23v25.00" class="stroke"/>
<use x="637.87" y="330.23" xlink:href="#hd"/>
<path d="M634.37 330.23v22.00" class="stroke"/>
<use x="647.97" y="333.23" xlink:href="#hd"/>
<path d="M644.47 333.23v19.00" class="stroke"/>
<use x="658.07" y="330.23" xlink:href="#hd"/>
<path d="M654.57 330.23v22.00" class="stroke"/>
<use x="668.17" y="327.23" xlink:href="#hd"/>
<path d="M664.67 327.23v25.00" class="stroke"/>
<use x="678.27" y="324.23" xlink:href="#hd"/>
<path d="M674.77 324.23v28.00" class="stroke"/>
<path class="fill"
	d="M706.47 322.93l24.30 7.30v3.20l-24.30 -7.30"/>
<use x="703.27" y="342.23" xlink:href="#hd"/>
<path d="M706.77 342.23v-18.20" class="stroke"/>
<use x="715.07" y="351.23" xlink:href="#hd"/>
<path d="M718.57 351.23v-23.60" class="stroke"/>
<use x="726.87" y="357.23" xlink:href="#hl"/>
<use x="726.87" y="363.23" xlink:href="#hl"/>
<use x="726.87" y="363.23" xlink:href="#hd"/>
<path d="M730.37 363.23v-32.10" class="stroke"/>
<use x="476.57" y="342.23" xlink:href="#hd"/>
<path d="M473.07 342.23v21.00" class="stroke"/>
<use x="516.97" y="342.23" xlink:href="#hd"/>
<path d="M513.47 342.23v21.00" class="stroke"/>
<path class="fill"
	d="M513.47 363.23c0.6 -5.6 9.6 -9 5.6 -18.4
	1.6 6 -1.3 11.6 -5.6 12.8
"/>
<defs>
<text id="trl" font-family="serif" font-size="16" font-style="italic"
	x="-2" y="-4">tr</text>
</defs>
<use x="187.47" y="260.23" xlink:href="#trl"/>
<use x="343.37" y="263.23" xlink:href="#trl"/>
</g>
</svg>
