<?xml version="1.0" standalone="no"?>
<!DOCTYPE svg PUBLIC "-//W3C//DTD SVG 1.1//EN"
	"http://www.w3.org/Graphics/SVG/1.1/DTD/svg11.dtd">
<svg xmlns="http://www.w3.org/2000/svg" version="1.1"
	xmlns:xlink="http://www.w3.org/1999/xlink"
	color="black"
	width="907.20px" height="1056.00px">
<style type="text/css">
.fill {fill: currentColor}
.stroke {stroke: currentColor; fill: none}
text{white-space: pre}
</style>
<title>./K516f-2-3-4-5-6-7-8-9-10-11-12-2-3-4-5-6.abc page 1</title>
<!-- Creator: abcm2ps-8.13.8 -->
<!-- CreationDate: Aug 14, 2017 10:23 -->
<!-- CommandLine: -v -q -O= ./K516f-2-3-4-5-6-7-8-9-10-11-12-2-3-4-5-6.abc -->
<rect width="100%" height="100%" fill="white"/>
<g stroke-width="0.70" transform="scale(1.173)">
<!-- title: 2-3-4-5-6-7-8-9-10-11-12-2-3-4-5-6 -->
</g>
<g stroke-width="0.70" transform="scale(1.173)" font-family="serif" font-size="20.00">
<text x="386.57" y="54.23" text-anchor="middle">2-3-4-5-6-7-8-9-10-11-12-2-3-4-5-6</text>
</g>
<g stroke-width="0.70" transform="scale(1.173)" font-family="serif" font-size="20.00">
<!-- subtitle: $1K.516f::96:06:158:85:80:68:21:94:65:4:108:9:174:58:52:93::$0 -->
</g>
<g stroke-width="0.70" transform="scale(1.173)" font-family="Courier" font-size="12.00" font-weight="bold">
<text x="386.57" y="74.03" text-anchor="middle">K.516f::96:06:158:85:80:68:21:94:65:4:108:9:174:58:52:93::</text>
</g>
<g stroke-width="0.70" transform="scale(1.173)" font-family="Courier" font-size="12.00" font-weight="bold">
<!-- subtitle: $1Perm. No.: 110155980957485$0 -->
<text x="386.57" y="93.03" text-anchor="middle">Perm. No.: 110155980957485</text>
</g>
<g stroke-width="0.70" transform="scale(0.821)" font-family="Courier" font-size="12.00" font-weight="bold">
<defs>
<ellipse id="hd" rx="4.1" ry="2.9"
	transform="rotate(-20)" class="fill"/>
</defs>
<use x="123.39" y="167.32" xlink:href="#hd"/>
<path d="M126.89 167.32v-21.00" class="stroke"/>
<path class="fill"
	d="M126.89 146.32c0.6 5.6 9.6 9 5.6 18.4
	1.6 -6 -1.3 -11.6 -5.6 -12.8
"/>
</g>
<g stroke-width="0.70" transform="scale(1.173)" font-family="serif" font-size="15.00" font-weight="bold">
<text x="95.47" y="119.23">= 111</text>
<path class="stroke" stroke-width="1"
	d="M25.77 215.23v-82.00"/>
<path class="fill"
	d="M20.77 130.23
	c10.5 1 12 -4.5 12 -3.5c0 1 -3.5 5.5 -8.5 5.5
	v84.00
	c5 0 8.5 4.5 8.5 5.5c0 1 -1.5 -4.5 -12 -3.5"/>
<defs>
<g id="rdots" class="fill">
	<circle cx="0" cy="-9" r="1.2"/>
	<circle cx="0" cy="-15" r="1.2"/>
</g>
</defs>
<use x="84.77" y="157.23" xlink:href="#rdots"/>
<path class="stroke" stroke-width="1"
	d="M80.77 157.23v-24.00"/>
<path class="stroke" stroke-width="3"
	d="M76.27 157.23v-24.00"/>
<use x="84.77" y="215.23" xlink:href="#rdots"/>
<path class="stroke" stroke-width="1"
	d="M80.77 215.23v-58.00"/>
<path class="stroke" stroke-width="3"
	d="M76.27 215.23v-58.00"/>
<path class="stroke" stroke-width="1"
	d="M156.47 157.23v-24.00"/>
<path class="stroke" stroke-width="1"
	d="M156.47 215.23v-58.00"/>
<path class="stroke" stroke-width="1"
	d="M227.17 157.23v-24.00"/>
<path class="stroke" stroke-width="1"
	d="M227.17 215.23v-58.00"/>
<path class="stroke" stroke-width="1"
	d="M317.57 157.23v-24.00"/>
<path class="stroke" stroke-width="1"
	d="M317.57 215.23v-58.00"/>
<path class="stroke" stroke-width="1"
	d="M388.27 157.23v-24.00"/>
<path class="stroke" stroke-width="1"
	d="M388.27 215.23v-58.00"/>
<path class="stroke" stroke-width="1"
	d="M459.67 157.23v-24.00"/>
<path class="stroke" stroke-width="1"
	d="M459.67 215.23v-58.00"/>
<path class="stroke" stroke-width="1"
	d="M550.17 157.23v-24.00"/>
<path class="stroke" stroke-width="1"
	d="M550.17 215.23v-58.00"/>
<path class="stroke" stroke-width="1"
	d="M652.77 157.23v-24.00"/>
<path class="stroke" stroke-width="1"
	d="M652.77 215.23v-58.00"/>
<path class="stroke" stroke-width="3"
	d="M745.87 157.23v-24.00"/>
<path class="stroke" stroke-width="1"
	d="M741.37 157.23v-24.00"/>
<use x="737.37" y="157.23" xlink:href="#rdots"/>
<path class="stroke" stroke-width="3"
	d="M745.87 215.23v-58.00"/>
<path class="stroke" stroke-width="1"
	d="M741.37 215.23v-58.00"/>
<use x="737.37" y="215.23" xlink:href="#rdots"/>
<path d="m25.77 157.23
	h721.60
	M25.77 151.23
	h721.60
	M25.77 145.23
	h721.60
	M25.77 139.23
	h721.60
	M25.77 133.23
	h721.60
	" class="stroke"/>
<path d="m25.77 215.23
	h721.60
	M25.77 209.23
	h721.60
	M25.77 203.23
	h721.60
	M25.77 197.23
	h721.60
	M25.77 191.23
	h721.60
	" class="stroke"/>
</g>
<g stroke-width="0.70" transform="scale(1.173)" font-family="serif" font-size="13.00">
<text x="656.77" y="118.63">1</text>
<path class="stroke"
	d="M652.77 107.23m0 20v-20h86.60v20"/>
<defs>
<path id="utclef" class="fill" d="m-50 -90
	c-72 -41 -72 -158 52 -188
	150 -10 220 188 90 256
	-114 52 -275 0 -293 -136
	-15 -181 93 -229 220 -334
	88 -87 79 -133 62 -210
	-51 33 -94 105 -89 186
	17 267 36 374 49 574
	6 96 -19 134 -77 135
	-80 1 -126 -93 -61 -133
	85 -41 133 101 31 105
	23 17 92 37 90 -92
	-10 -223 -39 -342 -50 -617
	0 -90 0 -162 96 -232
	56 72 63 230 22 289
	-74 106 -257 168 -255 316
	9 153 148 185 252 133
	86 -65 29 -192 -80 -176
	-71 12 -105 67 -59 124"/>
<use id="tclef" transform="translate(0,6) scale(0.045)"
	xlink:href="#utclef"/>
</defs>
<use x="37.77" y="151.23" xlink:href="#tclef"/>
<g font-family="serif" font-size="16" font-weight="bold" font-style="normal"
	transform="translate(56.27,156.73) scale(1.2,1)">
	<text text-anchor="middle">8</text>
	<text y="-12" text-anchor="middle">3</text>
</g>
<path class="fill"
	d="M94.47 164.13l42.30 6.40v-3.20l-42.30 -6.40"/>
<use x="98.27" y="136.23" xlink:href="#hd"/>
<path d="M94.77 136.23v26.90" class="stroke"/>
<use x="119.07" y="142.23" xlink:href="#hd"/>
<path d="M115.57 142.23v24.10" class="stroke"/>
<use x="139.87" y="151.23" xlink:href="#hd"/>
<path d="M136.37 151.23v18.20" class="stroke"/>
<path class="fill"
	d="M165.07 170.53l42.30 -6.40v-3.20l-42.30 6.40"/>
<use x="168.97" y="151.23" xlink:href="#hd"/>
<path d="M165.47 151.23v18.20" class="stroke"/>
<use x="189.77" y="142.23" xlink:href="#hd"/>
<path d="M186.27 142.23v24.10" class="stroke"/>
<use x="210.57" y="136.23" xlink:href="#hd"/>
<path d="M207.07 136.23v26.90" class="stroke"/>
<path class="fill"
	d="M242.77 117.03l66.20 0.00v3.20l-66.20 -0.00"/>
<path class="fill"
	d="M263.87 122.03l44.70 0.00v3.20l-44.70 -0.00"/>
<use x="239.67" y="145.23" xlink:href="#hd"/>
<path d="M243.17 145.23v-27.20" class="stroke"/>
<use x="260.37" y="139.23" xlink:href="#hd"/>
<path d="M263.87 139.23v-21.20" class="stroke"/>
<use x="275.27" y="145.23" xlink:href="#hd"/>
<path d="M278.77 145.23v-27.20" class="stroke"/>
<use x="290.17" y="148.23" xlink:href="#hd"/>
<path d="M293.67 148.23v-30.20" class="stroke"/>
<use x="305.07" y="151.23" xlink:href="#hd"/>
<path d="M308.57 151.23v-33.20" class="stroke"/>
<path class="fill"
	d="M326.27 166.13l42.30 4.40v-3.20l-42.30 -4.40"/>
<use x="330.07" y="142.23" xlink:href="#hd"/>
<path d="M326.57 142.23v22.90" class="stroke"/>
<use x="350.87" y="136.23" xlink:href="#hd"/>
<path d="M347.37 136.23v31.10" class="stroke"/>
<use x="371.67" y="151.23" xlink:href="#hd"/>
<path d="M368.17 151.23v18.20" class="stroke"/>
<path class="fill"
	d="M396.97 169.03l43.00 -3.20v-3.20l-43.00 3.20"/>
<use x="400.77" y="139.23" xlink:href="#hd"/>
<path d="M397.27 139.23v28.70" class="stroke"/>
<use x="421.57" y="148.23" xlink:href="#hd"/>
<path d="M418.07 148.23v18.20" class="stroke"/>
<use x="443.07" y="133.23" xlink:href="#hd"/>
<defs>
<path id="usharp" class="fill" d="
	m136 -702
	v890
	h32
	v-890
	m128 840
	h32
	v-888
	h-32
	m-232 286
	v116
	l338 -96
	v-116
	m-338 442
	v116
	l338 -98
	v-114"/>
<use id="sh0" transform="translate(-4,5) scale(0.018)"
	xlink:href="#usharp"/>
</defs>
<use x="434.07" y="133.23" xlink:href="#sh0"/>
<path d="M439.57 133.23v31.60" class="stroke"/>
<path class="fill"
	d="M468.37 159.23l66.20 0.00v-3.20l-66.20 -0.00"/>
<path class="fill"
	d="M489.47 154.23l44.70 0.00v-3.20l-44.70 -0.00"/>
<use x="472.17" y="130.23" xlink:href="#hd"/>
<path d="M468.67 130.23v28.00" class="stroke"/>
<defs>
<path id="hl" class="stroke" d="m-6 0h12"/>
</defs>
<use x="492.97" y="127.23" xlink:href="#hl"/>
<use x="492.97" y="124.23" xlink:href="#hd"/>
<path d="M489.47 124.23v34.00" class="stroke"/>
<use x="507.87" y="130.23" xlink:href="#hd"/>
<path d="M504.37 130.23v28.00" class="stroke"/>
<use x="522.77" y="139.23" xlink:href="#hd"/>
<path d="M519.27 139.23v19.00" class="stroke"/>
<use x="537.67" y="130.23" xlink:href="#hd"/>
<path d="M534.17 130.23v28.00" class="stroke"/>
<path class="fill"
	d="M558.87 170.43l78.30 0.00v-3.20l-78.30 -0.00"/>
<path class="fill"
	d="M559.17 165.43l77.60 0.00v-3.20l-77.60 -0.00"/>
<use x="562.67" y="142.23" xlink:href="#hd"/>
<path d="M559.17 142.23v27.20" class="stroke"/>
<use x="577.57" y="136.23" xlink:href="#hd"/>
<path d="M574.07 136.23v33.20" class="stroke"/>
<use x="592.47" y="130.23" xlink:href="#hd"/>
<path d="M588.97 130.23v39.20" class="stroke"/>
<use x="607.37" y="139.23" xlink:href="#hd"/>
<path d="M603.87 139.23v30.20" class="stroke"/>
<use x="622.27" y="148.23" xlink:href="#hd"/>
<path d="M618.77 148.23v21.20" class="stroke"/>
<use x="640.27" y="133.23" xlink:href="#hd"/>
<use x="631.27" y="133.23" xlink:href="#sh0"/>
<path d="M636.77 133.23v36.20" class="stroke"/>
<use x="665.27" y="130.23" xlink:href="#hd"/>
<path d="M661.77 130.23v40.00" class="stroke"/>
<use x="665.27" y="151.23" xlink:href="#hd"/>
<use x="665.27" y="145.23" xlink:href="#hd"/>
<use x="665.27" y="139.23" xlink:href="#hd"/>
<defs>
<path id="r8e" class="fill" d="m 0 0
	c-1.5 1.5 -2.4 2 -3.6 2
	2.4 -2.8 -2.8 -4 -2.8 -1.2
	c0 2.7 4.3 2.4 5.9 0.6"/>
<g id="r8">
	<path d="m3.3 -4l-3.4 9.6" class="stroke"/>
	<use x="3.4" y="-4" xlink:href="#r8e"/>
</g>
</defs>
<use x="718.97" y="145.23" xlink:href="#r8"/>
<defs>
<path id="ubclef" class="fill" d="m-200 -87
	c124 -35 222 -78 254 -236
	43 -228 -167 -246 -192 -103
	59 -80 157 22 92 78
	-62 47 -115 -22 -106 -88
	21 -141 270 -136 274 52
	-1 175 -106 264 -322 297
	m357 -250
	c0 -36 51 -34 51 0
	0 37 -51 36 -51 0
	m-2 -129
	c0 -36 51 -34 51 0
	0 38 -51 37 -51 0"/>
<use id="bclef" transform="translate(0,18) scale(0.045)"
	xlink:href="#ubclef"/>
</defs>
<use x="37.77" y="197.23" xlink:href="#bclef"/>
<g font-family="serif" font-size="16" font-weight="bold" font-style="normal"
	transform="translate(56.27,214.73) scale(1.2,1)">
	<text text-anchor="middle">8</text>
	<text y="-12" text-anchor="middle">3</text>
</g>
<use x="98.27" y="206.23" xlink:href="#hd"/>
<path d="M101.77 206.23v-21.00" class="stroke"/>
<use x="139.87" y="203.23" xlink:href="#r8"/>
<use x="168.97" y="200.23" xlink:href="#hd"/>
<path d="M165.47 200.23v25.00" class="stroke"/>
<use x="168.97" y="206.23" xlink:href="#hd"/>
<use x="210.57" y="203.23" xlink:href="#r8"/>
<use x="239.67" y="194.23" xlink:href="#hd"/>
<path d="M236.17 194.23v21.00" class="stroke"/>
<use x="290.17" y="203.23" xlink:href="#r8"/>
<use x="330.07" y="194.23" xlink:href="#hd"/>
<path d="M326.57 194.23v25.00" class="stroke"/>
<use x="330.07" y="200.23" xlink:href="#hd"/>
<use x="371.67" y="203.23" xlink:href="#r8"/>
<use x="400.77" y="206.23" xlink:href="#hd"/>
<path d="M404.27 206.23v-21.00" class="stroke"/>
<use x="443.07" y="203.23" xlink:href="#r8"/>
<use x="472.17" y="209.23" xlink:href="#hd"/>
<path d="M475.67 209.23v-21.00" class="stroke"/>
<use x="522.77" y="203.23" xlink:href="#r8"/>
<path class="fill"
	d="M565.87 180.03l60.30 8.00v3.20l-60.30 -8.00"/>
<use x="562.67" y="206.23" xlink:href="#hd"/>
<path d="M566.17 206.23v-25.20" class="stroke"/>
<use x="592.47" y="203.23" xlink:href="#hd"/>
<path d="M595.97 203.23v-18.20" class="stroke"/>
<use x="622.27" y="221.23" xlink:href="#hl"/>
<use x="622.27" y="224.23" xlink:href="#hd"/>
<path d="M625.77 224.23v-35.20" class="stroke"/>
<path class="fill"
	d="M661.47 234.43l69.30 0.00v-3.20l-69.30 -0.00"/>
<path class="fill"
	d="M682.57 229.43l47.80 0.00v-3.20l-47.80 -0.00"/>
<use x="665.27" y="215.23" xlink:href="#hd"/>
<path d="M661.77 215.23v18.20" class="stroke"/>
<use x="686.07" y="194.23" xlink:href="#hd"/>
<path d="M682.57 194.23v39.20" class="stroke"/>
<use x="704.07" y="197.23" xlink:href="#hd"/>
<defs>
<path id="unat" class="fill" d="
	m96 -750
	h-32
	v716
	l32 -8
	182 -54
	v282
	h32
	v-706
	l-34 10
	-180 50
	v-290
	m0 592
	v-190
	l182 -52
	v188"/>
<use id="nt0" transform="translate(-3,5) scale(0.018)"
	xlink:href="#unat"/>
</defs>
<use x="695.07" y="197.23" xlink:href="#nt0"/>
<path d="M700.57 197.23v36.20" class="stroke"/>
<use x="718.97" y="200.23" xlink:href="#hd"/>
<path d="M715.47 200.23v33.20" class="stroke"/>
<use x="733.87" y="203.23" xlink:href="#hd"/>
<path d="M730.37 203.23v30.20" class="stroke"/>
<defs>
<path id="turn" class="fill" d="
	m5.2 -8
	c1.4 0.5 0.9 4.8 -2.2 2.8
	l-4.8 -3.5
	c-3 -2 -5.8 1.8 -3.6 4.4
	1 1.1 2 0.8 2.1 -0.1
	0.1 -0.9 -0.7 -1.2 -1.9 -0.6
	-1.4 -0.5 -0.9 -4.8 2.2 -2.8
	l4.8 3.5
	c3 2 5.8 -1.8 3.6 -4.4
	-1 -1.1 -2 -0.8 -2.1 0.1
	-0.1 0.9 0.7 1.2 1.9 0.6"/>
</defs>
<use x="421.57" y="127.23" xlink:href="#turn"/>
</g>
<g stroke-width="0.70" transform="scale(1.173)" font-family="serif" font-size="13.00">
<path class="stroke" stroke-width="1"
	d="M25.77 351.23v-85.00"/>
<path class="fill"
	d="M20.77 263.23
	c10.5 1 12 -4.5 12 -3.5c0 1 -3.5 5.5 -8.5 5.5
	v87.00
	c5 0 8.5 4.5 8.5 5.5c0 1 -1.5 -4.5 -12 -3.5"/>
<use x="148.77" y="290.23" xlink:href="#rdots"/>
<path class="stroke" stroke-width="1"
	d="M144.77 290.23v-24.00"/>
<path class="stroke" stroke-width="3"
	d="M140.27 290.23v-24.00"/>
<use x="148.77" y="351.23" xlink:href="#rdots"/>
<path class="stroke" stroke-width="1"
	d="M144.77 351.23v-61.00"/>
<path class="stroke" stroke-width="3"
	d="M140.27 351.23v-61.00"/>
<path class="stroke" stroke-width="1"
	d="M225.97 290.23v-24.00"/>
<path class="stroke" stroke-width="1"
	d="M225.97 351.23v-61.00"/>
<path class="stroke" stroke-width="1"
	d="M294.77 290.23v-24.00"/>
<path class="stroke" stroke-width="1"
	d="M294.77 351.23v-61.00"/>
<path class="stroke" stroke-width="1"
	d="M354.27 290.23v-24.00"/>
<path class="stroke" stroke-width="1"
	d="M354.27 351.23v-61.00"/>
<path class="stroke" stroke-width="1"
	d="M416.47 290.23v-24.00"/>
<path class="stroke" stroke-width="1"
	d="M416.47 351.23v-61.00"/>
<path class="stroke" stroke-width="1"
	d="M502.97 290.23v-24.00"/>
<path class="stroke" stroke-width="1"
	d="M502.97 351.23v-61.00"/>
<path class="stroke" stroke-width="1"
	d="M589.47 290.23v-24.00"/>
<path class="stroke" stroke-width="1"
	d="M589.47 351.23v-61.00"/>
<path class="stroke" stroke-width="1"
	d="M681.67 290.23v-24.00"/>
<path class="stroke" stroke-width="1"
	d="M681.67 351.23v-61.00"/>
<path class="stroke" stroke-width="3"
	d="M745.87 290.23v-24.00"/>
<path class="stroke" stroke-width="1"
	d="M741.37 290.23v-24.00"/>
<use x="737.37" y="290.23" xlink:href="#rdots"/>
<path class="stroke" stroke-width="3"
	d="M745.87 351.23v-61.00"/>
<path class="stroke" stroke-width="1"
	d="M741.37 351.23v-61.00"/>
<use x="737.37" y="351.23" xlink:href="#rdots"/>
<path d="m25.77 290.23
	h721.60
	M25.77 284.23
	h721.60
	M25.77 278.23
	h721.60
	M25.77 272.23
	h721.60
	M25.77 266.23
	h721.60
	" class="stroke"/>
<path d="m25.77 351.23
	h721.60
	M25.77 345.23
	h721.60
	M25.77 339.23
	h721.60
	M25.77 333.23
	h721.60
	M25.77 327.23
	h721.60
	" class="stroke"/>
<path class="fill"
	d="M307.27 261.23c4.52 -5.66 24.19 -12.92 28.71 -10.60
	v-0.23c-5.38 -4.09 -23.32 3.17 -28.71 10.83"/>
<path class="fill"
	d="M601.97 266.23c2.76 -3.95 14.74 -4.43 17.50 -0.70
	v-0.22c-3.28 -5.51 -14.22 -5.03 -17.50 0.92"/>
<text x="61.77" y="251.63">2</text>
<path class="stroke"
	d="M57.77 240.23m0 20v-20h80.00v20"/>
<use x="37.77" y="284.23" xlink:href="#tclef"/>
<use x="70.27" y="263.23" xlink:href="#hd"/>
<path d="M66.77 263.23v40.00" class="stroke"/>
<use x="70.27" y="284.23" xlink:href="#hd"/>
<use x="70.27" y="278.23" xlink:href="#hd"/>
<use x="70.27" y="272.23" xlink:href="#hd"/>
<use x="116.97" y="278.23" xlink:href="#r8"/>
<path class="fill"
	d="M164.37 304.73l44.20 -4.50v-3.20l-44.20 4.50"/>
<path class="fill"
	d="M164.77 299.73l12.30 -1.30v-3.20l-12.30 1.30"/>
<use x="168.27" y="272.23" xlink:href="#hd"/>
<path d="M164.77 272.23v31.50" class="stroke"/>
<use x="180.57" y="281.23" xlink:href="#hd"/>
<path d="M177.07 281.23v21.20" class="stroke"/>
<use x="192.87" y="272.23" xlink:href="#hd"/>
<path d="M189.37 272.23v28.90" class="stroke"/>
<use x="211.67" y="266.23" xlink:href="#hd"/>
<use x="202.67" y="266.23" xlink:href="#sh0"/>
<path d="M208.17 266.23v33.00" class="stroke"/>
<use x="238.47" y="263.23" xlink:href="#hd"/>
<path d="M234.97 263.23v21.00" class="stroke"/>
<path class="fill"
	d="M234.97 284.23c0.6 -5.6 9.6 -9 5.6 -18.4
	1.6 6 -1.3 11.6 -5.6 12.8
"/>
<use x="264.17" y="272.23" xlink:href="#hd"/>
<path d="M260.67 272.23v21.00" class="stroke"/>
<path class="fill"
	d="M303.47 288.53l33.40 -7.10v-3.20l-33.40 7.10"/>
<use x="307.27" y="269.23" xlink:href="#hd"/>
<path d="M303.77 269.23v18.20" class="stroke"/>
<use x="323.67" y="263.23" xlink:href="#hd"/>
<path d="M320.17 263.23v20.70" class="stroke"/>
<use x="339.97" y="260.23" xlink:href="#hl"/>
<use x="339.97" y="254.23" xlink:href="#hl"/>
<use x="339.97" y="254.23" xlink:href="#hd"/>
<path d="M336.47 254.23v26.30" class="stroke"/>
<path class="fill"
	d="M362.97 294.63l17.00 2.30v-3.20l-17.00 -2.30"/>
<use x="366.77" y="269.23" xlink:href="#hd"/>
<path d="M363.27 269.23v24.40" class="stroke"/>
<use x="366.77" y="275.23" xlink:href="#hd"/>
<use x="383.17" y="272.23" xlink:href="#hd"/>
<path d="M379.67 272.23v23.60" class="stroke"/>
<use x="383.17" y="278.23" xlink:href="#hd"/>
<use x="399.47" y="278.23" xlink:href="#r8"/>
<path class="fill"
	d="M425.17 303.43l49.90 -6.70v-3.20l-49.90 6.70"/>
<use x="428.97" y="284.23" xlink:href="#hd"/>
<path d="M425.47 284.23v18.20" class="stroke"/>
<use x="453.57" y="275.23" xlink:href="#hd"/>
<path d="M450.07 275.23v23.90" class="stroke"/>
<use x="478.17" y="269.23" xlink:href="#hd"/>
<path d="M474.67 269.23v26.60" class="stroke"/>
<path class="fill"
	d="M511.67 286.33l49.90 8.20v-3.20l-49.90 -8.20"/>
<use x="515.47" y="263.23" xlink:href="#hd"/>
<path d="M511.97 263.23v22.10" class="stroke"/>
<use x="540.07" y="269.23" xlink:href="#hd"/>
<path d="M536.57 269.23v20.20" class="stroke"/>
<use x="564.67" y="275.23" xlink:href="#hd"/>
<path d="M561.17 275.23v18.20" class="stroke"/>
<path class="fill"
	d="M598.17 306.43l67.90 0.00v-3.20l-67.90 -0.00"/>
<path class="fill"
	d="M598.47 301.43l67.20 0.00v-3.20l-67.20 -0.00"/>
<use x="601.97" y="272.23" xlink:href="#hd"/>
<path d="M598.47 272.23v33.20" class="stroke"/>
<use x="619.97" y="275.23" xlink:href="#hd"/>
<use x="610.97" y="275.23" xlink:href="#sh0"/>
<path d="M616.47 275.23v30.20" class="stroke"/>
<use x="632.27" y="272.23" xlink:href="#hd"/>
<path d="M628.77 272.23v33.20" class="stroke"/>
<use x="644.57" y="266.23" xlink:href="#hd"/>
<path d="M641.07 266.23v39.20" class="stroke"/>
<use x="656.87" y="284.23" xlink:href="#hd"/>
<path d="M653.37 284.23v21.20" class="stroke"/>
<use x="669.17" y="278.23" xlink:href="#hd"/>
<path d="M665.67 278.23v27.20" class="stroke"/>
<use x="694.17" y="275.23" xlink:href="#hd"/>
<path d="M690.67 275.23v21.00" class="stroke"/>
<use x="726.87" y="278.23" xlink:href="#r8"/>
<use x="37.77" y="333.23" xlink:href="#bclef"/>
<path class="fill"
	d="M66.47 370.43l59.60 0.00v-3.20l-59.60 -0.00"/>
<path class="fill"
	d="M83.17 365.43l42.60 0.00v-3.20l-42.60 -0.00"/>
<use x="70.27" y="351.23" xlink:href="#hd"/>
<path d="M66.77 351.23v18.20" class="stroke"/>
<use x="86.67" y="324.23" xlink:href="#hd"/>
<path d="M83.17 324.23v45.20" class="stroke"/>
<use x="98.97" y="330.23" xlink:href="#hd"/>
<path d="M95.47 330.23v39.20" class="stroke"/>
<use x="116.97" y="333.23" xlink:href="#hd"/>
<use x="107.97" y="333.23" xlink:href="#sh0"/>
<path d="M113.47 333.23v36.20" class="stroke"/>
<use x="129.27" y="336.23" xlink:href="#hd"/>
<path d="M125.77 336.23v33.20" class="stroke"/>
<use x="168.27" y="333.23" xlink:href="#hd"/>
<use x="159.27" y="333.23" xlink:href="#sh0"/>
<path d="M171.77 333.23v-21.00" class="stroke"/>
<use x="211.67" y="339.23" xlink:href="#r8"/>
<path class="fill"
	d="M234.67 373.53l42.70 -9.70v-3.20l-42.70 9.70"/>
<path class="fill"
	d="M234.97 368.43l12.30 -2.80v-3.20l-12.30 2.80"/>
<use x="238.47" y="351.23" xlink:href="#hd"/>
<path d="M234.97 351.23v21.20" class="stroke"/>
<use x="250.77" y="345.23" xlink:href="#hd"/>
<path d="M247.27 345.23v24.40" class="stroke"/>
<use x="264.17" y="330.23" xlink:href="#hd"/>
<path d="M260.67 330.23v36.40" class="stroke"/>
<use x="280.57" y="324.23" xlink:href="#hd"/>
<path d="M277.07 324.23v38.60" class="stroke"/>
<use x="307.27" y="330.23" xlink:href="#hd"/>
<path d="M303.77 330.23v31.00" class="stroke"/>
<use x="307.27" y="342.23" xlink:href="#hd"/>
<use x="339.97" y="336.23" xlink:href="#hd"/>
<path d="M336.47 336.23v25.00" class="stroke"/>
<path class="fill"
	d="M336.47 361.23c0.6 -5.6 9.6 -9 5.6 -18.4
	1.6 6 -1.3 11.6 -5.6 12.8
"/>
<use x="339.97" y="342.23" xlink:href="#hd"/>
<use x="366.77" y="330.23" xlink:href="#hd"/>
<path d="M363.27 330.23v21.00" class="stroke"/>
<use x="399.47" y="351.23" xlink:href="#hd"/>
<path d="M402.97 351.23v-21.00" class="stroke"/>
<path class="fill"
	d="M402.97 330.23c0.6 5.6 9.6 9 5.6 18.4
	1.6 -6 -1.3 -11.6 -5.6 -12.8
"/>
<path class="fill"
	d="M425.17 359.13l62.20 0.00v-3.20l-62.20 -0.00"/>
<path class="fill"
	d="M425.47 354.13l61.50 0.00v-3.20l-61.50 -0.00"/>
<use x="428.97" y="336.23" xlink:href="#hd"/>
<path d="M425.47 336.23v21.90" class="stroke"/>
<use x="428.97" y="342.23" xlink:href="#hd"/>
<use x="441.27" y="330.23" xlink:href="#hd"/>
<path d="M437.77 330.23v27.90" class="stroke"/>
<use x="453.57" y="336.23" xlink:href="#hd"/>
<path d="M450.07 336.23v21.90" class="stroke"/>
<use x="453.57" y="342.23" xlink:href="#hd"/>
<use x="465.87" y="330.23" xlink:href="#hd"/>
<path d="M462.37 330.23v27.90" class="stroke"/>
<use x="478.17" y="336.23" xlink:href="#hd"/>
<path d="M474.67 336.23v21.90" class="stroke"/>
<use x="478.17" y="342.23" xlink:href="#hd"/>
<use x="490.47" y="330.23" xlink:href="#hd"/>
<path d="M486.97 330.23v27.90" class="stroke"/>
<path class="fill"
	d="M511.67 359.13l62.20 0.00v-3.20l-62.20 -0.00"/>
<path class="fill"
	d="M511.97 354.13l61.50 0.00v-3.20l-61.50 -0.00"/>
<use x="515.47" y="336.23" xlink:href="#hd"/>
<path d="M511.97 336.23v21.90" class="stroke"/>
<use x="515.47" y="342.23" xlink:href="#hd"/>
<use x="527.77" y="330.23" xlink:href="#hd"/>
<path d="M524.27 330.23v27.90" class="stroke"/>
<use x="540.07" y="336.23" xlink:href="#hd"/>
<path d="M536.57 336.23v21.90" class="stroke"/>
<use x="540.07" y="342.23" xlink:href="#hd"/>
<use x="552.37" y="330.23" xlink:href="#hd"/>
<path d="M548.87 330.23v27.90" class="stroke"/>
<use x="564.67" y="336.23" xlink:href="#hd"/>
<path d="M561.17 336.23v21.90" class="stroke"/>
<use x="564.67" y="342.23" xlink:href="#hd"/>
<use x="576.97" y="330.23" xlink:href="#hd"/>
<path d="M573.47 330.23v27.90" class="stroke"/>
<use x="601.97" y="333.23" xlink:href="#hd"/>
<path d="M598.47 333.23v21.00" class="stroke"/>
<use x="656.87" y="330.23" xlink:href="#hd"/>
<path d="M653.37 330.23v21.00" class="stroke"/>
<path class="fill"
	d="M653.37 351.23c0.6 -5.6 9.6 -9 5.6 -18.4
	1.6 6 -1.3 11.6 -5.6 12.8
"/>
<path class="fill"
	d="M697.37 322.93l33.40 8.70v3.20l-33.40 -8.70"/>
<use x="694.17" y="342.23" xlink:href="#hd"/>
<path d="M697.67 342.23v-18.20" class="stroke"/>
<use x="710.57" y="351.23" xlink:href="#hd"/>
<path d="M714.07 351.23v-22.90" class="stroke"/>
<use x="726.87" y="357.23" xlink:href="#hl"/>
<use x="726.87" y="363.23" xlink:href="#hl"/>
<use x="726.87" y="363.23" xlink:href="#hd"/>
<path d="M730.37 363.23v-30.60" class="stroke"/>
<use x="168.27" y="339.23" xlink:href="#hd"/>
<path d="M164.77 339.23v21.00" class="stroke"/>
<defs>
<text id="trl" font-family="serif" font-size="16" font-style="italic"
	x="-2" y="-4">tr</text>
</defs>
<use x="264.17" y="264.23" xlink:href="#trl"/>
</g>
</svg>
